<mxfile host="app.diagrams.net" agent="Mozilla/5.0 (X11; Linux x86_64) AppleWebKit/537.36 (KHTML, like Gecko) Chrome/129.0.0.0 Safari/537.36" version="26.0.6">
  <diagram id="UKOtDZ8AjwMM643GaRJZ" name="WAF">
    <mxGraphModel grid="1" page="1" gridSize="10" guides="1" tooltips="1" connect="1" arrows="1" fold="1" pageScale="1" pageWidth="850" pageHeight="1100" math="0" shadow="0">
      <root>
        <mxCell id="0" />
        <mxCell id="1" parent="0" />
        <mxCell id="Cr8tvd9zCxj87-AZz5cW-8" style="edgeStyle=orthogonalEdgeStyle;rounded=0;orthogonalLoop=1;jettySize=auto;html=1;entryX=0;entryY=0.5;entryDx=0;entryDy=0;entryPerimeter=0;flowAnimation=1;" edge="1" parent="1" source="c7LU-c8q0nOlSC5T02CA-23">
          <mxGeometry relative="1" as="geometry">
            <mxPoint x="3178.5" y="208.5" as="sourcePoint" />
            <mxPoint x="3270" y="45" as="targetPoint" />
            <Array as="points">
              <mxPoint x="3208" y="110" />
              <mxPoint x="3230" y="110" />
              <mxPoint x="3230" y="126" />
              <mxPoint x="3235" y="126" />
              <mxPoint x="3235" y="40" />
              <mxPoint x="3280" y="40" />
              <mxPoint x="3280" y="45" />
            </Array>
          </mxGeometry>
        </mxCell>
        <mxCell id="c7LU-c8q0nOlSC5T02CA-17" value="" style="edgeStyle=orthogonalEdgeStyle;rounded=0;orthogonalLoop=1;jettySize=auto;html=1;flowAnimation=1;" edge="1" parent="1" target="Cr8tvd9zCxj87-AZz5cW-2">
          <mxGeometry x="0.23" relative="1" as="geometry">
            <mxPoint as="offset" />
            <mxPoint x="2989" y="356" as="sourcePoint" />
            <mxPoint x="3250" y="290" as="targetPoint" />
            <Array as="points">
              <mxPoint x="3103" y="356" />
              <mxPoint x="3103" y="370" />
              <mxPoint x="3241" y="370" />
              <mxPoint x="3241" y="350" />
            </Array>
          </mxGeometry>
        </mxCell>
        <mxCell id="hgdbOCuSvj7pBk63r5Fd-34" style="rounded=0;orthogonalLoop=1;jettySize=auto;html=1;flowAnimation=1;edgeStyle=orthogonalEdgeStyle;" edge="1" parent="1">
          <mxGeometry relative="1" as="geometry">
            <mxPoint x="3290" y="774.41" as="sourcePoint" />
            <mxPoint x="3450" y="774" as="targetPoint" />
            <Array as="points">
              <mxPoint x="3290" y="780" />
              <mxPoint x="3450" y="780" />
            </Array>
          </mxGeometry>
        </mxCell>
        <mxCell id="Cr8tvd9zCxj87-AZz5cW-1" value="Conta AWS" style="points=[[0,0],[0.25,0],[0.5,0],[0.75,0],[1,0],[1,0.25],[1,0.5],[1,0.75],[1,1],[0.75,1],[0.5,1],[0.25,1],[0,1],[0,0.75],[0,0.5],[0,0.25]];outlineConnect=0;gradientColor=none;html=1;whiteSpace=wrap;fontSize=12;fontStyle=0;container=0;pointerEvents=0;collapsible=0;recursiveResize=0;shape=mxgraph.aws4.group;grIcon=mxgraph.aws4.group_account;strokeColor=#CD2264;fillColor=none;verticalAlign=top;align=left;spacingLeft=30;fontColor=#CD2264;dashed=0;" vertex="1" parent="1">
          <mxGeometry x="3108" y="-110" width="1212" height="936" as="geometry" />
        </mxCell>
        <mxCell id="Cr8tvd9zCxj87-AZz5cW-2" value="Região São Paulo (sa-east-1)" style="points=[[0,0],[0.25,0],[0.5,0],[0.75,0],[1,0],[1,0.25],[1,0.5],[1,0.75],[1,1],[0.75,1],[0.5,1],[0.25,1],[0,1],[0,0.75],[0,0.5],[0,0.25]];outlineConnect=0;gradientColor=none;html=1;whiteSpace=wrap;fontSize=12;fontStyle=0;container=1;pointerEvents=0;collapsible=0;recursiveResize=0;shape=mxgraph.aws4.group;grIcon=mxgraph.aws4.group_region;strokeColor=#00A4A6;fillColor=default;verticalAlign=top;align=left;spacingLeft=30;fontColor=#147EBA;dashed=1;" vertex="1" parent="1">
          <mxGeometry x="3270" y="-80" width="970" height="820" as="geometry" />
        </mxCell>
        <mxCell id="1aAK-wmucyP8-3csXpzo-49" style="edgeStyle=orthogonalEdgeStyle;rounded=0;orthogonalLoop=1;jettySize=auto;html=1;flowAnimation=1;" edge="1" parent="Cr8tvd9zCxj87-AZz5cW-2">
          <mxGeometry relative="1" as="geometry">
            <mxPoint x="-9" y="120" as="sourcePoint" />
            <mxPoint x="290" y="360" as="targetPoint" />
            <Array as="points">
              <mxPoint x="-9" y="120" />
              <mxPoint x="116" y="120" />
              <mxPoint x="116" y="410" />
              <mxPoint x="290" y="410" />
            </Array>
          </mxGeometry>
        </mxCell>
        <mxCell id="Cr8tvd9zCxj87-AZz5cW-16" style="edgeStyle=orthogonalEdgeStyle;rounded=0;orthogonalLoop=1;jettySize=auto;html=1;flowAnimation=1;" edge="1" parent="Cr8tvd9zCxj87-AZz5cW-2">
          <mxGeometry relative="1" as="geometry">
            <mxPoint x="115" y="187.5" as="sourcePoint" />
            <mxPoint x="440" y="188" as="targetPoint" />
          </mxGeometry>
        </mxCell>
        <mxCell id="hgdbOCuSvj7pBk63r5Fd-11" value="" style="sketch=0;points=[[0,0,0],[0.25,0,0],[0.5,0,0],[0.75,0,0],[1,0,0],[0,1,0],[0.25,1,0],[0.5,1,0],[0.75,1,0],[1,1,0],[0,0.25,0],[0,0.5,0],[0,0.75,0],[1,0.25,0],[1,0.5,0],[1,0.75,0]];outlineConnect=0;fontColor=#232F3E;fillColor=#E7157B;strokeColor=#ffffff;dashed=0;verticalLabelPosition=bottom;verticalAlign=top;align=center;html=1;fontSize=12;fontStyle=0;aspect=fixed;shape=mxgraph.aws4.resourceIcon;resIcon=mxgraph.aws4.eventbridge;" vertex="1" parent="Cr8tvd9zCxj87-AZz5cW-2">
          <mxGeometry x="885.5" y="251.5" width="68.5" height="68.5" as="geometry" />
        </mxCell>
        <mxCell id="hgdbOCuSvj7pBk63r5Fd-12" value="&lt;b&gt;EventBridge&lt;/b&gt;" style="text;strokeColor=none;align=center;fillColor=none;html=1;verticalAlign=middle;whiteSpace=wrap;rounded=0;" vertex="1" parent="Cr8tvd9zCxj87-AZz5cW-2">
          <mxGeometry x="889" y="320" width="60" height="30" as="geometry" />
        </mxCell>
        <mxCell id="1aAK-wmucyP8-3csXpzo-1" value="" style="sketch=0;points=[[0,0,0],[0.25,0,0],[0.5,0,0],[0.75,0,0],[1,0,0],[0,1,0],[0.25,1,0],[0.5,1,0],[0.75,1,0],[1,1,0],[0,0.25,0],[0,0.5,0],[0,0.75,0],[1,0.25,0],[1,0.5,0],[1,0.75,0]];outlineConnect=0;fontColor=#232F3E;fillColor=#7AA116;strokeColor=#ffffff;dashed=0;verticalLabelPosition=bottom;verticalAlign=top;align=center;html=1;fontSize=12;fontStyle=0;aspect=fixed;shape=mxgraph.aws4.resourceIcon;resIcon=mxgraph.aws4.backup;" vertex="1" parent="Cr8tvd9zCxj87-AZz5cW-2">
          <mxGeometry x="887" y="362" width="70" height="70" as="geometry" />
        </mxCell>
        <mxCell id="1aAK-wmucyP8-3csXpzo-41" value="&lt;b&gt;AWS Backup&lt;/b&gt;" style="text;strokeColor=none;align=center;fillColor=none;html=1;verticalAlign=middle;whiteSpace=wrap;rounded=0;" vertex="1" parent="Cr8tvd9zCxj87-AZz5cW-2">
          <mxGeometry x="881.75" y="432" width="76" height="20" as="geometry" />
        </mxCell>
        <mxCell id="hgdbOCuSvj7pBk63r5Fd-38" value="" style="shape=image;verticalLabelPosition=bottom;labelBackgroundColor=default;verticalAlign=top;aspect=fixed;imageAspect=0;image=https://a.b.cdn.console.awsstatic.com/a/v1/BDHM2PU4F2NVNL6YEJNN7TMMTP5Z4UEHZQNA4QTUEDMOPZGEOMPA/icon/valkyrie-fd78b539f98a06e2dcc4e58f37c680ad.svg;" vertex="1" parent="Cr8tvd9zCxj87-AZz5cW-2">
          <mxGeometry x="887" y="470" width="70" height="70" as="geometry" />
        </mxCell>
        <mxCell id="hgdbOCuSvj7pBk63r5Fd-39" value="&lt;b&gt;AWS FIS&lt;/b&gt;" style="text;strokeColor=none;align=center;fillColor=none;html=1;verticalAlign=middle;whiteSpace=wrap;rounded=0;" vertex="1" parent="Cr8tvd9zCxj87-AZz5cW-2">
          <mxGeometry x="884" y="540" width="76" height="20" as="geometry" />
        </mxCell>
        <mxCell id="1aAK-wmucyP8-3csXpzo-50" value="" style="sketch=0;points=[[0,0,0],[0.25,0,0],[0.5,0,0],[0.75,0,0],[1,0,0],[0,1,0],[0.25,1,0],[0.5,1,0],[0.75,1,0],[1,1,0],[0,0.25,0],[0,0.5,0],[0,0.75,0],[1,0.25,0],[1,0.5,0],[1,0.75,0]];points=[[0,0,0],[0.25,0,0],[0.5,0,0],[0.75,0,0],[1,0,0],[0,1,0],[0.25,1,0],[0.5,1,0],[0.75,1,0],[1,1,0],[0,0.25,0],[0,0.5,0],[0,0.75,0],[1,0.25,0],[1,0.5,0],[1,0.75,0]];outlineConnect=0;fontColor=#232F3E;fillColor=#E7157B;strokeColor=#ffffff;dashed=0;verticalLabelPosition=bottom;verticalAlign=top;align=center;html=1;fontSize=12;fontStyle=0;aspect=fixed;shape=mxgraph.aws4.resourceIcon;resIcon=mxgraph.aws4.cloudwatch_2;" vertex="1" parent="Cr8tvd9zCxj87-AZz5cW-2">
          <mxGeometry x="889" y="10" width="70" height="70" as="geometry" />
        </mxCell>
        <mxCell id="1aAK-wmucyP8-3csXpzo-52" value="&lt;div style=&quot;text-align: center;&quot;&gt;&lt;span style=&quot;background-color: transparent; color: light-dark(rgb(0, 0, 0), rgb(255, 255, 255));&quot;&gt;&lt;b&gt;CloudWatch&lt;/b&gt;&lt;/span&gt;&lt;/div&gt;" style="text;whiteSpace=wrap;html=1;" vertex="1" parent="Cr8tvd9zCxj87-AZz5cW-2">
          <mxGeometry x="887" y="80" width="80" height="28.5" as="geometry" />
        </mxCell>
        <mxCell id="hgdbOCuSvj7pBk63r5Fd-46" value="" style="endArrow=classic;html=1;rounded=0;" edge="1" parent="Cr8tvd9zCxj87-AZz5cW-2">
          <mxGeometry width="50" height="50" relative="1" as="geometry">
            <mxPoint x="921.4099999999999" y="118.5" as="sourcePoint" />
            <mxPoint x="921.4099999999999" y="128.5" as="targetPoint" />
            <Array as="points">
              <mxPoint x="921.4099999999999" y="108.5" />
            </Array>
          </mxGeometry>
        </mxCell>
        <mxCell id="hgdbOCuSvj7pBk63r5Fd-44" value="" style="shape=image;verticalLabelPosition=bottom;labelBackgroundColor=default;verticalAlign=top;aspect=fixed;imageAspect=0;image=data:image/png,iVBORw0KGgoAAAANSUhEUgAAAaIAAAFWCAIAAACkag43AAAACXBIWXMAAA7EAAAOxAGVKw4bAAAgAElEQVR4nOy9d5Qc93Hv+636dc/Mzi4WORIEA0CCAUxgFJMsUZREiUqUrnX8ZEuW7Gs5vGPf856vLNl+vpZsBdv3Slagkm1ZshwkWWKURRLMpJhJgCBIBAIEQOSMXWyame5f1fuju2d6NmEXgSBn63PmALMz03F6vl1Vv6r6karCMAyjdeETvQOGYRjHF5M5wzBaHJM5wzBaHJM5wzBaHJM5wzBaHJM5wzBaHJM5wzBaHJM5wzBaHJM5wzBaHJM5wzBaHJM5wzBaHJM5wzBaHJM5wzBaHJM5wzBaHJM5wzBaHJM5wzBaHJM5wzBaHJM5wzBaHJM5wzBaHJM5wzBaHJM5wzBaHJM5wzBaHJM5wzBaHJM5wzBaHJM5wzBaHJM5wzBaHJM5wzBaHJM5wzBaHJM5wzBaHJM5wzBaHJM5wzBaHJM5wzBaHJM5wzBaHJM5wzBaHJM5wzBaHJM5wzBaHJM5wzBaHJM5wzBaHJM5wzBaHJM5wzBaHJM5wzBaHJM5wzBaHJM5wzBaHJM5wzBaHJM5wzBaHJM5wzBaHJM5wzBaHJM5wzBaHJM5wzBaHJM5wzBaHJM5wzBaHJM5wzBaHJM5wzBaHJM5wzBaHJM549gjgA73ujY/H+ljhnFsCU70DhgTAsmeEDJtIyRP6cTskTGBMJkzjiWaiVhOylKrTQCX+ySZwBmvFSZzxvGirnSsqdXGg942nTNeEyw2Zxx7VBXNIkYKVkDTtwzjtcRkzjiWEKCqIiKqiVva1d8bE8BQRqSxQpEonZlyxmsF2d3VOLaoqqoKUwTqBWoab497JnFxhit1ggsACZQgNMSNNYzjg8XmjLGiWTyNhnmZ638QEUA1+N3wL/Xvf6J/w0t7ts5p67xq5hkXl+cs4I4SEcACOKgClFvfCJswjKPCrDljTGhuSCFNCqH6KwpARZVAxFX4g+hbI7ufPbTjsYOvbIm7UQiCSGZQ+axJ8y5rP/3S9lNmIiwLKQmIAgSsVJdKbaSa1DHRM44KkzljTDQSROrXC6XZcAxA4SkegK+A9qP6SG3Fw/teWl070FXUmNAWQwHhoCClOb79TcVT3jnznCU8y5E6UAEuAJMOsurymMwZR4XJnDE2tEngkn81y/sloA+17eh9DtuW7V2xcu8GTGsbYFQlZkUxhhBF7GIKChp0VsMF6PiVuee8ubRoAdono0igJO8kW7nJnHEsMZkzxsbQrF9AgZjQB3Qh3uT3Pdyz6sH9K3e4HuoIIxHmAAr1ngUK9kSeCXAF4WAgbjsUXTl70WXTz7g4PH0eTepQLioDlBqHTZjMGUeFyZwxJjQ3PsAKECKJI6I+wsu1g4/1bX6iun5dtH2gUFOKmZgVAAlIVIUAkIIIUJXAqxMJPanw3HDKxaVT396++MLC3EkUBuCQeYiumcwZR4XJnDFGVAAPChQkCqY+9euw/+nerQ8fWLd6YFf/ZNdbqHmKA9WywAk8wSPROAAEJYISPIlnFQITFdm7tmpwGjrf1HnGVTPPmo/SPLQFcM3DrYNkTod70TBGxGTOGJlGMC4tvfeAADGkG/7p2oa7tqxcXtm5t8NrORjQCA7CcCJlz6wiBE8KVVYoSIkAYQgkAgmDnYSRuP5a7CKeLoXT/aT3LLjkrZ1nTUWhHRzCpTagDC0Tg8mcMXZM5owRyNxUkcgjCsKigmKtbUNlnfQ80LduRd+rrw7sqTmhAiUmmybjpYowCbDR4BgbIKoxIU6rwSQQEChg5cBTSVx7HJzRMec9U86/rDBvtoQagYJCGwWU1P0PHp0wpTPGhMmcMQKpAacgEUQVxL1EL+u+Z/q2PXZoy1q/dz8PeKk51pCJCACBMweVgmzhxr8EVfKqyirJVZfUgxExCQMgogBhsYZ5teJVMxa/pf3s08MZnRq2gx1ICATlxojv0BCeYQyPyZwxAqIAhCVCHEN3o/J4z4a7e9Zu8Af3aKU/FM8SirikcCsRHE47LeVlLru8FJTmn1CmcnWdImUoiCnkIARHkXC/nleYe01p0VWTTzulOKMMdoADGOIABZHJnDFmTOaMYVGogrQGvwOV5fGO+/ateKFnS5eLBopUcYiYAA0UTkGkpAIMK3OkoLTjXCZzrJyqn+Qz8Ugz31eIKeZyv5sRlRaFM65fcOHF4fyTELShoADBM5gyJ9YwDovJnDEIAaCgCqI+xBt1/31dL92178UdQX84ta3a3yuEmEnIKTjRMAflccscSKGabypMSiLklRQgktBJwBEVajqrz13SPvfdpyw91c3spLZ2cBHM6ois8N8YEyZzE4xBlQyDX1aF99Aq8LI/8Ght42Pd69f27jzgKq7dxb7GiIlYwUJOwABz0mNpiMxl7mqSF9KQOQJY0hieat2cq8ucKIkSoI4lDIQCjzZxQdXPCMpXtZ/5jinnnxy2TwKXUXRIfOV8T+IGTQp61KfNeENjMjfBGDpQqQAQkyZ94A6hsgM9qwd2PtH1yorKtt0YiMs84CuFQuDjKsEnSyoyh5XSYQECQJniUFDXLwIxRKFCCggrnBJpsuUsq04ZyXNSoXSIloVZmFRJ1RHHldqMqHBWafaSyadf0rHgIp7TCQqS2n9yg1qb5KvQTOYMk7kJxlBrTgFggHQAfgCywm++d8/yldH2g0FcIXgigfckgEAV5LOFGGABUS5vhMghySPJnFZSYiWGCDVkLkgMu8S0A5RASlASQqpxlCybDGFouqeiTuE8Fbh4Lk//4OTzL247eYa2tYEDKhJcvg+7yZyRx2RuIpLNQaOJHeWBfsg6dP/84Mr79646WOxX5zWgmBiAqgglzc3rjiB0OOUgckqQXGwukTkhyURrNJlTgidSUEPmoKrKSbhQlbJLNYx4alS4aOpp759yxRKaNANhCQVWl3Rzqu+lhe6MBJO5CUd9dtQYvoaoAjmotRX9rz6wf+3yaNfWsAclKqkSlJhJOCdzaGTTDSNzRMRp+C2rvydyBFL1TACUVUgT5UoWSCpfh5G5TNGaZQ4KVSKKmYW41I9ZvcFvnnHdUp4333XMQKkgDkSDDFWz5QyTuYmFAhGgUIbW4Hdp19qBnb/s3/DIgY2HiloLtOLimhNAGBQoJ1PVyBClyMlcvkMTa3o9OSGNoaQcgrlSdc6JUxGvEHCWT0xEaZovA1yXuXRd9Q2oTzaRaZ8IwQOsHHrXUQ3PDmdfW154defCBTxpErcFyLmsMJkzTOYmGApURIS5G/FL1a1PdL+48tDGzb6ra3IQM1gpho8ZnhEoBUKsoCF9kYBGBA2JkZUpSno5KQuRiJaqmCvhRVPmbunZv1a6opCE4F1qzjklVjARgUGkBJ+WvgL19nOpzCVrTzYtCghEwawcxkFHNZxRKy0qzLrmpPOuKJ4yD4Wy1AsymmRuhHFmo8UxmWt1MsdNAA/UID2qu6nywIHnH9i+Yle5r7cQxSVU4AFyQgKNGQJ2IAZY6zZU81opNfGobmQpUxpBIxIOBW1VnFue9Z5pF51dnLw9rvxiYO0L+1/ZUz1UmxTGTkFgZQIYaUWDICmnGCpzqaecyRwAEYgCrBT40ImDhhS7mVK+Mjjpxjnnn1ec1Q6EaRYxVECkRGRhu4mJyVwrIx4EEMErPOMQRdt14GHd+MCB1Zv27/QlHXA1z7GQsoMKSEmJkcTXiECZ1iR6pEiThwkCTkZFGzroKVB2HGqk1Fs9qzjthtnnv7Vj8TyEIYJ+YC9q67HrwX0v3LtvrUwuefERBEyeIKxCXkkIjhJFyk37xYOvUAFU1CsrSTJK4hROUIBouaYnRYVfmbHoVydfeipPTRqcqGgBjlw2hvuanHzj9YPJXCujqgr1RH3Qfag+W93y4P4Xnul7tatDPTSKas6lwwauOY6VyJxwKmGknFltknwqJ3PCKgSHiIrVYGpcnEed53TOv27OeWdh2jRoAQQ4hUaQLkQ70f94dd1jO9Zt1979YdzjxDsVjkHeSVLKz4PyQGjweEcic9I8xMBC7ImFpFTVab26xE17+7zLlpQWTuXSZHAHwsHJdcaEwWSulYnEDyDqY6yq7bzn0NoXdPvWysF+VIXA5FQlLZcidc3Dk3WZy15LugHXZ7khBXkoMVhjp3How7ZaYWY8+fL206/pPOOC9gWTlEqZYmn6r9Tga/ADqG2Iu3956NVf9m/eJN19LqoFEXFcjAWAcJpqnKjRcLO56iCZy1KCWUBCCtHAUxhhclQ8v/O0t0w+Z2lx3knU0aEUCIZZn9HqmMy1MHoIsl577jn4/LO9r7wS7xsoaY1FVMULwM5xPezlqC5zgpzTmqtSyM0rqFStVMMgZCZF3M6Y2s0XuJPfN/vq08qzZnJ7e1IGQVQ3ERlQiId6iIf2g/YherXa9eTA+of2rNnqeiplgcQqcRhwKr7KyXAsqN6MJBntUEA1lx5H9f0GoPAiqiAQebT5YBY6zy/O//DcKxdj8lSlQtPEsMaEwGSuhZGtA4e+8Mi/7jqluEb3Rh3kWUCSldNzPhdkGJljAppkru47Eog9yFNA1CE0M3bvPunit7slp1FHAaESU7ZqblScCiACikFRGjCEh+7V2hPR5jt3P7s22tMVRlpQkjjfjpOI0sJZZHuSDiQ0DSck+XqpdedFBUneiRITCpNrxUU73e+e/Y5rO04rE5HJ3ATDZK6F0e27d15x41uLl582+6aruk8p9xZjhvf1XJAmmVNNZ6WRNFmElOq5vspKJJQk8yoLt6FY7R6YHrS/uePUm6aetzCYMRmFEtgJAySsBJAk+khgASW5byygGIFTsAKMQ4gqiPdDlvW8cOf+VbuDvgr6hZO0kiy9hAmaqGWjRoIzO1TS8liIgxA8Q0XJayGGI4VSLSbq156nXv2zyz70B2dd324iN/EITvQOGMcPKnAwg9tfuXfl7s27Tn7n5ZPPnldcML2rbaCLKmEYwiurkgqrJqEwQZrRptAktUMT35VYlEgRqCL2bTHNjwunF+dcMefcywoLZis64Ar1+gNVHjRbjaZ5IwAYFEDTiSGAyQg7EUyBfmDSRWd2zH9895oXezZv0UO9HdzLA8waUpKXpwqKmTw7Vjipr1kJUIVCxYtnEJgVLGAoxzrQM9DT3TdwqNoecpU1Ui/KzBacm1iYzLUyAmJXmIXJ1XU92zbd7xbNmnndRVPftpincl+tpo6E1KXRLlJoY4gBqmndFTkOWQONPNWiTnHlKFzUMesdM85bWpqzgKcUxRERqSqIkVhx6WSr4EZRfy6sBk7b0BGngwwoQOcqz8Tsc2dOW1le+Hht0yPdaythJS6oZ2VoYl4KsWeBT7xiJk0qwOBVhdSLQOAIAZiFawOVA3sO9O3tEs8sYexJIC7bqDGhMJlrXRQMCtQROBBXHlBdf3D7pnt3Pbrqwo9cH54/a1uh+1AYiSOnTKRJZpxLiuqT9m9MHqxKEC7G1FGhBb3uhlPOv2LywumuPAXFSQiI2NddX5JEj4ZL2ch1far/1RgqpYK6AjDHBe2dJ5+JWUsnzbtl62Pr5OD+chSxssIJtUVArBErcg01s15OFFWrAbtisehE9+3Z27NzdxwpqgoXOFdQiXw6cEFZ2NCYKJjMtS6ZsMTiPSEUhFVMRXnX8j2/XPOD2e9ZuvDGiwuzwv6yVtkzQKr1SismUpAoQ5kHUOypnhpOORNTf+2iaxeibYaQV/FENYkYTBRkLmSiHWNRkGFNKi6ApiCYDF5QPHvRotk/739+2c4X9wdxLRQhdSoOXhixQkWgRBwoPCkzMHva7Fql2r3vQN+efQPdvaAAtRgUEoeOHBBBVRtzahsTCJO5lkUAT/BMHspEGjhP1KtRqa3oqK37zrUrV+446folc992Zt9UiaVa1bjGIpwWPHAYqoAHZJ5vu3zSyW+fftalpVPL6kIgSQ0OoMSqoNRPBTJT7nBopoOUe4XSfVawAxF0MabMKl959WmL79z2/Mr+Hdt9dy3wXERMWq3V2lAgchDHFIiPCejec7Br34H+PfsRebgQyuAAIBX1iAtJh7xjf5qNNwAmc62JZq0lhSGqxOQyIYlJHLtOFKqvdm/690cOPr9+wdsumHnhrP7pxc217rhADCpG7Pr9LF88r3zSVe1nXNZ56snoKHsO4ZTgwQE8pw5gvrD/SK2kLIc4zVZGah/OQqmT589eMP2F/q3PH9q4vGfDbunrY4kdSJwKJ+MTcSSH9uzt339QohggCkrqAdF6zp2IpRNMaEzmWpmkglMIjgkCVkCJGIKYVNtAhR6qPbLlpVXbJl0y+eSbrpm3eN7u2AM6ucLzXeeVM8+5vu2sU8JJUzVUoZjS3sEEsBIr1YcWZNTdGHa3ht/XRp4dJWLXDpyGttnl0y8pzXu2c/5d3Sue3rWeykV2rGAo7dq1q3rgYNTbh0IRQQGxagyA0MhNHr77gDFxMJlrNRLFyXcJT+q0PMFTMomDulgJQgKnFLpCsVdqTx1Y8dSPTrruijM++m4J+NLSzBsXXHK6m9oJ1w52SPLR4BqJIgRyyVhFQ1EaclKvNh1UKz8Or7He7jwEJiPo5PbJ5TMXts1+rOP0+zav3N8W7+7v2bZ1c+xBsQYoep806XTgpCWxAIBK0ggg7bYy7tNptAIWrJgoJDMteAapOhUnSa6tMjSMUeoNp1cn7/rFygc+9a1TXsGvTn/TOZg+rcaTwHEUJ0ZcwGlqXFNx1Whok0d7FDigIDRd3Jk0+cZJS3/jzBv8nt5tGzZ6AURZkbTGa2xwpPFeY0Ji1lzLko6Z5v7MckUGo0yiEoSFUiTFLT13fuZ/420rP3jju990yaXh1M4wDBqTAWqTRSTjvE0O2vYYF64nnzjBJHDIwT6dFMbsPIuKMmlibDYZj+Nzo43WxmSuNcm3VUrmR81qnLJ+HpT/sDIzanGHMgcFL37ZsmWrnlt+3TXXfuhXP3Dx0ouSikDVpA9cvXHIKByzYFgjWkcAyAnaoR2ENgQUg4oBIMLQxHvWJMs57TuQzD9GIE49a7Kq/YmJOa2tTL3WPtMmUMOdS3/1BBARgwJBqCQqwiRMO3bvuu222373d3//S3/zv/fs3uuIvJfmQdVRHsf4KNK9T8N1QgqOQD5TNyJlynUWaCx5HHfLeONgMmeAFEmjpaQbcCgoehTAlUqlp6f/7/7Plz/y0Y/dc/+DPo5UhvN5kUxlfdyGM+spvY4kgHeIASJm4kazkbS0NQXWkMLIYTLXagyyWXK5FCPVYBGyvuSKpJAVpHDOBYVCb3/flClTNm7c+Pu//wef+syfP79yVXd3j0g6gdfI9tGYTCgd+yAFwQO+eZLpw6BAVvRghtwEx2JzrUa9djSVGeXUY1XC4PlV66G25oWTFr4KAIVCQRVETgT/9V+/WP7ss9e97W3vftcNSy84H44ZxEyUVZjWDboxhsDyAjfiApqm5iGddzG1PQeL4zBimfZ0ZyLV3FRkxsTDrLmJTvL7r8/Ulb4ICDTJJlaiTCPo1Ve3/ssP/vVP/uQz3/2nf+rp6U1qDVIf8fj5rKqCRKmQjKeCgCQYlzitqVmY25Vmp9U82AmOyVzrk68BGFoPMJLnmCUYNxxEJZQ7Ophp+7YdX/jC3/y3//bh++69P06T6qDI2YqvQXSsrnHJX/nDMFUzmjGZa2VUk3QLkBdOGvaCSZmUoenUMsnrgx/CDEfkqBnvlVwoROVy+8aNm//4jz/1x3/86ZXPr6xUBpigChVSyaJy+Ym3jmTvxylY6UHlHmKXtwGYzLU2bW2lq6++csrUKbVqNZvdZpByHGagIJs4YtDHCEAQBLVa7a67fvGHf/T/3nzzt1etWuV9TARRqTcuTzv/Hk09RLM3PVaOpxNtvOFwf/mXf3mi98E4XoRheMEFF5xyyoK9+/Zv377dBS7f1lI1PynqEFWg+n+U1Rbk8tCSpktEQRB0dXW9sGrVypUv1Kq1WXPmdHSUyXE2oQR0DO3dhr/ZZrqqzS8QdI+vLtv2wtae/T4gTWaoGDqe2siDJlYKIr1y/llvmrGwkFb123jEBMKsuVaGiGbPmfW+97/nH//x21/44udnzZoZ16ph4MrlEhGRAqLJY2gaLWluuvu6G9iABSxgL3Au9LGuWbvub//Plz/5e//3/Q89EgtAEJFKLcrLZ/05Nz8GGV8KlbFXa2ljNfXjzv1pV7hhF8EEIAiCGTOmf+Cm9/3Hf/zbh3/1Q2Eh6O/vI0gQ1qctPPIK0PrMcESBKxZWrVn9O7/3B3/wR3+4/IUXq94XwpAIERDVZ4Q9AdecGW4THXNaWx5BNp3N5M5J11x15cIzFnZ3dx88eGCgvz9LJkEyeWnDTaRs+KBeC5+QjdQOSr9TgkJFBUSi+uJLLz72+OP9/QMzZ8/q6JwEgIjQtInhaH4jV1yR85+HcVrz+5X7YKM+glhhTutExmSu5VFAVZWICBoWwjMWLrzm6qtPnjevUhnYvWun+CgMw/pEEGmXTM2EIhGRuj4N9m6JwKl8EYPIe8/EpWJbT0/viuUrXn755WqlMnfevM729nRluRYng2dMPZz+ZQnP2COVZdtWbu3ZZzJnjAWrgpgQZA07AAiBZs6Y9oEPvPfyyy+95557/umfvrd7995yW/tAZUCB0AXkOJO3oYH9YT3O1AQUEWYHQLww2Mf69FPPrFj+/KZNmz/96U8Fzily8b4hqx770SDZnmGMDYvNTSDS5DcGsYYFd+qpJ//Of//tn/znjz/0oQ/0D/QRSSF0Qeiy1OBjoCMi0tXV1dV1kImZwJROz5A8DOO1wa61CUGu6W8DLxL76LRTFnzurz77ne9885prrm4rt9WiWjKqwESZt3uYVY9CGBZKpVKtFrtGe/XhxjsGr+SIFHaEPVHrVjLhMae1BWmWtPROJmlpfSoyTI4dwYUAOto73vmO6y+99NI77vj5rbfcumbN2loUl8qBigCa9qZMVpKtt+575t1a0noNv8/eJu81aVRHuQia5PesvtPZvmX7n77vB2fO1XVSAckaaQLEoHQT2ojVCUCNFk3m6k5ITOYmEHntaBo+BRQ0bdrUX/u1D1955ZV33XX3LbfdumXrtlJb2REGKpXAhUe2xYYllZvP1YL/xmuMOa0TiqFlWwAgUGIKmIuF4MwzF/3e7/3Ot75583vf+16oRtVasVisf5IP48GOtuH8vyZ2xmuJydxEgUd+uMTfAwIXOFBboXjuOWd/5e/+9ps3f/3ssxdXevsdWBVhGGYF8YPDa6RNKR2snDxIOekFMIKuSfNj7IeCXHKfYRwGc1qNJpIBUALCkN967dWLF595y+133H3XspfXb4jjCJIlz41Kc4EXHwdBOqrb81F2TjHecJjMGcOQ5gKrzp0987c+/rErLn/TsmXL7r7n7h3bdyGZ4itXnDCURt85gpImAwK5BU6wFZYf0TAmAiZzxjAkucQcOABl5y6+cMnZZ55+0/tv/Kd//uE99yzr6xtQCIiQzGhYH2jgoTqmg/5o5ljETHToSghKoGGGc5uWG05uLYjTktjXahwGApipo6P97LMW//X/+rOPfOQjSUpdqhKHyUqz8Jlx4jFrzhgHntg555wTP1oOWiNpLZtlQhrJLJJzFuvDDuMdej1y9VRzWiceJnPGiORVIJ1lQTSqRXEcqyZOa+bf5j90fKlP90CDnWEdNKHYiKWvhFEji0bLYTJnDM8gjaPc6+nztLYg995xl7lB8TTSvMiCGu/Xm6sM2SfTuAmIyZwxDpLyeyaSpoTfkdE6Y5CWTKESsbKwsXGsMJkzxss49UdlXLPW1MtuYwBZ67hsklYVQoVwCFJhldys1EpozDrR6I6X32cPY6JiMmeMF4LysP4pZUMK9by5tIOlghrqOGjShmSBwS8IIEgL/kOARFVEoP3OvVrpunf7C6907/GOk5bEaUILKaCauquENJU5rZYQsFB9O4y89220OiZzxjigzFXNrCYoRuv6kUXvGq3OR1OWtDtnqomUdVUREahWCNtReXTbyz9/6Zcru7d1FapKBBmxjqx5N/LbMG94wmEyZ4yPpDVno3G50mG7G6lCxxb3lywqx5oahxGoRq5K+vi+9T9Z+ehjuzfsjfuiMtVUBAo+XN6eYZjMGeNHc5X2x9QyUihBEo3zCiZlrUC2Ue3fVt1/+wuP76z1xEWulthDRBRMCiWmfOPMpK5MRy2iNXNuomEyZ4yXpv7pDVNubIGusXxKAXU0QH59dd9j217+92ceWFc90FMETSn6OFKIZEWyGKU58LAvW9X+hMRkzhgvmj3SMH9jrq7DyQc3f2RYP9YDVUIvdNmWlfdsf+GR7et2STemlYkQx5EGIK+JqzqWJJXEqmtUXYzecsBoUUzmjHFCdZmDpoUQ9Smpcx8BkEvnTQZb67O/1lfBWSavxF4JNed2I17Rs/XBzS/cvf7ZPbXeCntfZNWYvKjE9eGPZONNcyBmoxH1mghWhAIhIpADKVFE5O2in3jYN26MH9Is8k9pw6bsjab/cn9QffqIxLwiEOCzoi0lVBz3Azuinh+ufuDnG57d7iq9GKAQzsNBfRyhrnCUdFzXQVbZ0HxlApymqlovibARiwmIyZwxLrQ5Niea5qdBCK7+aiY2SbCfMKSvpgcoaeEpHjgEv8/HP+996V8fuWvt/u2VIosTOM5KttKOKJkhme7HYRFCzOyzLOJAqGBX/ITEvnRjvNDQ52OqcsgLFEFJBehDvMdXnt+77Rdbnrtvw4rdMiCTQiUlDlRiBeJ6evHhhY04Z+ElH48dCBzGKFTjKcV2G2OdmJjMGeNiUCHViF1A8iggDKVkJkEBkRBqhCroya5Nd6x/7v6tq7ZXD4HBAXsIlFQkaY6Z5iCPYdwgcWnTCQyzzwfgkqc5QcelSxZdNO9MBgsaVqcxQTCZM44XSUWVAkrwBCYEolBEEve4cBN6b3nx/nvXP7OteqiHfc2JUxCIlaQeeNNs5sMhZGWujT/zfnEiw3qZy4cAACAASURBVEGsHb21N59+3gfPefOSaQtODSa1Db8yo8UxmTPGz2HnvKkPOBDAJCqJFecdYtB+xX17Vnzvsf9a0btDJxf6dACiHLg0X65pQyBNZ+EZtE2lXOWsQgmqIEAIpAg9ikKztPSbb73hXadeegY6AR/CM4IhbemM1sdkzhgHClVNBIXT4VKAwMkkEKKeFJwUhCV+IxE74jDw4mssByRa3bX79lcfu3/t8n2oDBQR1yoIHYgU8JkHrMlQgypIlUBNAbcswsecZqN4ThLoVNWBvMRBTAs75/zK3LNvuuiqJTyzDHKIQ7jUPmy0ojMmCiZzxjEjCaGpwklqWAVB0DMQoS044HR9z967Nz1zz5qnt8qhuL1Q8eyl3jCdtB7lazTwHHFQVZP5ZRXskTZrVwSgYk3nFKcsnXP6u8+94oppZ0wlmgwKTNgmPCZzxrigYccb6pGy5M2k8F4J3vtY5SBFP13zxO0bnl7dva2/RDXURKHiodroeTLKMMZQiSIGlD0FnjyBgNCjMBBfNv/MD517zZVTzphXag98XBB1QRKoM0d1QmMyZ4wHRdJApC5oUGVNI2KcVVYR4AkKiBchWr5x7fbH73252HeoqGBVOKp5J/A8Xisr64yiAEjiKNIgDIvliiwqTP3gtVdfedJZiwvz2iAdcOQcSEgVxCDrvzShMZkzxkuT3TVKQpsSHKCMXvJtFFdCaJBWorJoIFCmbGqvcVaaegEzc6HQFy107VcvOufD5731nNKcTqAIEDirKnOob8GYwJjMGeMhzWKrx9Sk/mqeXJ9eCKHmEDnIYEVsfASgLOGNgCEOpjYllZDCwYU1msltF5+84NfP+pUr5p7R4bkgPmAiESIGWNMaLzZv1TCZM8aFphVXiRwlfd1omASTdM4tyqYazNX7A1DWmHSYxdIunZSM1wKAV/VxOpwbK7MLQNOqfPXMRW9ZtPTiBWecFc4qAyqRc/Wi/kYxhA2sGjCZM46ERiZuOj5KQ94kbdhRrEjLsFLfVIRHKaKvZ9xRknaHWAulkq/FYSyFarRo5km/dvmb3zV9yZy2jgJRUdWByIUggaoyJbZfNnJrEmeYzBnjRhqhtCTyNVy2MGUt6ZgIqsnkNMT1CtWkW91QpaOkuRPFjUovx6HzVAqK0z2/c9EFv3PJ285ws1gRo1amctKAXalR4N9Yl9lxBgCTOWNcpJlxeTVp9PHNP0nHQ1WRNTFXkDS6m+Q7No3Q0JxUVcGKUgWTvVx26uL3nH35tbMXn4Yyia/BhxQIhMCelFLXuZ6ybPpmNDCZM8aBajJjIJiAJI8kebX+9pAFmFibrDZt9FNKyrhyw62ZD0wKgo9drJ1UuHD2gveceslbTj9noZvapqSkwhwoE0g07XRCABNRUk4BmBln5DGZM8ZHNg7aXHs68vxaxCyadPpFbkqwnDzmfF5SYiXPpECxirM7Zr//nDe9Y/6FC9o7JyNoA5OqT/plgpPuwz4b9yUz4YwRMJkzxgE36q+knnA7osYRhCQrcGhUwA4Ze6BGyohSIFSM0R7hukUXf/TCt1/UNqdD4jZxzEWFl/yoLjX+N4EzRsFkzjg89QKC9rbi+9/z3lc3bb7vgQejKALALlRNR1VFlYhYIbmk3DScRxDKum/WNYmz4gRRVGuurVRgLg/IJZPmf/SS66+fe147KIQ65xgAYgK5rFlcEh9khSOXzwA2i84YCo3ibhjGIJKJpQ92dd33wEO33HLr88+vrMWxqEr6riZTVXPikxKUtMvF/uw589975eb2as0lLqYHkghcollEolyLO2t84dxTr11w7rtOX3pmMLWTgqT+H414GzUmvGlMs5N1yaSchWkYOUzmjHFQqcVB4Lz3zrmdu3Y9+NAjP/3ZLavXrI187EUSjcNhZU4lKaZ33hHghINYTi5PvXHhRe9ccOH5k+d1IvC1SikoSRp/Sxk++qZcf9tkzhgWkzljHMSizCSSljbUonj7jh1333XXP37ve7t272rv6PBxTMQExogypxAPQilsC4W0Z2Cydzcuufytpy25ZMqZ0yjsAKXd1Ek5aUUCZK2Ih4vBDUpVNowhmMwZ42BQHXySJczASy+/8sUvffHhhx+J47hcLnuvSOZ/gHYHNX/WnPnvvTqVORFAiJ2rabm7smT6yb9+7Q3XzjhjHkoFBAEQgAmJp6pZBxOul86azBlHgMmcMQ6GlTlVVdWBKLrvvgd+9KMfr179Uk9vr1A6IXQ3R/E5c05679Wb26uREwdQLAXgpPbpH1pwyQfOumwBd7aJhkrsAiJOLDgC4DUVUfNEjaPDZM4YB0NlDkDs1Ys4x6rYsWPHPffcc+edP39p7RpPWiDu5bjvrJlz33Pljg4f+agc6ZlT57xpwdnXnHruZZNOm4mgDJIkrkcOQGMqG9HMfhte5vJzixnGKJjMGeNgaPM21abpqVU1rtU2vPzKXcvu+cmtt+zYuiUuB9EF80965+X7StJGfMVJiz605NqLO+fN5bYCOR5uVGGIG0pNb+T+UrP0jDFgMmeMA8HgKJkC0lTjCifgyEdOlr/wws033/zju24rXHbm4rdfNXnmtI+87d1XTl50ErexxmUOeQRTbIh+jSZzdUzvjJEwmTPGgTTsuawEYqjMKTj2sfcoFWpx7V9++qM7Vj5+/Qffe815b1pQmtwJuFpEAIeBq08E0YzJnHFsMZkzxsFQmcOQgn2ldKqIGFAfx+JrQdIQjotgB2WfNQSmevRt9AibyZxxVFixl3EsoST7g0CEAPDsAqYAxCCX1bMKZy3Mk5Itq88yjjMmc8Yxo9EzUwHAEUBEcPV5wNJO6Uku3InbT2OiYU6rcRzIvMuRWqGTKo1sxNkQqnFsMWvOOA4ctkWSOarGa4jdMg3DaHHMmjNed5ilZxxbzJozXo+Y0hnHEJM5wzBaHJM5wzBaHJM5wzBaHJM5wzBaHJM5wzBaHJM5wzBaHJM5wzBaHJM5wzBaHJM5wzBaHJM5wzBaHJM5wzBaHJM5wzBaHJM5wzBaHJM5wzBaHJM5wzBaHJM5wzBaHJM5wzBaHJM5wzBaHJsLwjBeL4w03yPMHjk6TOYM43XFGOdNPuLZMoafOPdI1/bGwG4ShnHiEREAmT132MdgRppUfoTXR1xhq05Ob9acYZxIFCCol5i5EMW1wAWgJuOjeUrvYcyuyIuIBgETESD1JVSEiAF4USiICVTXNc6ekAMrEMdeQc5xInrZdOGS3xC/Ya0ialX9Now3BInMCZTBMTwUCsr/JnmYH2gmN6rE5ChRLAWaZI7Sj0ABFRX12QabEFUmci5QBWXy1mIyZ9acYZxIEuMJij0H90vkMUhaRg2bERA451U7J01qKxUHLehFVMFEfb29lWp1lH0QVe9l6tSpxWLhyI7idY7JnGGceKI4vvmb39zy6rbAhQAJUnkjJQKgyV86VPOc487OSR//zY8tXnzGoLeYWUS997fcdvtTTz2Tc9vq8bjU7hORqVOm/PZvf2LhotOOz/GdYEzmDOPEo0JPPP70Sy+uKRSKSpnTqgQQK4GUFDl5avi1KjL/5JM+9MGbhl0tgQBdvXrNsmX3jRKeEu9PPvnkD//qh47pMb2OMJkzjBND3sdUIsABJESJugEAOHmFVZTqQTfJD0soqYCURsgTYYUHABVlJigLhlM71eGcYxn6wTcoJnOGceJJjbQmqeGGU0mKxrgDNQ8jJKOIlFuq/m79iXjxTAUQj5w2x82rbqmRSZM5w3it0SFSpIRBFplS+kHS9OOZcUX1uB2giSFH1DQ4S5Bc9E0B+DgOgxI40NgTkRAoWUEmo0qsRNmq68u2CCZzhnFi0Ny/9deUmuQJgCbJbjTEwCIlhRJJNlAx3OpTRJSIidiTKAFUd13rCw5aQ0spncmcYbyuSIZTBVp3UhNrTkA0SHc0GWKAIM2/G25t9c+SgjTzizVZPBepG+qljrDKNyAmc4ZxYsjbUawgFUZ9RDUZahgUrRuW0QcKOPtA6sYmycYNp1UBpKMUQ/auRTQOVtNqGK8PZNQ/jxWDSmIp93rj7WHS897gmDVnGCee4zCuOWy0LidzyahH81vDSmALMG6ZG/NdZugHhzGDzZg0DssoXdjy8DAffJ16XvX8t/pzqDpGpVpxPgZIRAFmZudcWCiAILnfCqVjqaOQfFgYTMSaVKsmjionuSkEQn141ik5Igyuk9BsW6/HczguzJozXu+M2dJ5AwfRCfjA+99/9VVXUxAoEUCOA+/lgfvv37BxozYf2qhHJfkcOg/vAhfHsXgvIkRevNTf10xvCRpFtSiGKgaN2b5hzuComMwZxokkUZq2YuETn/h4YnMBUMB71KrV3t7eTVtejeN4XCtMUNU4jgMXzpo9+6T58zvaJzFzFMe5nJW0iQm8nHzyyeW2IjLHdZgElTcyJnOGcWIYpCQi4pxLvU2kfmkU1VQEzcUNzUvr0FfTf4nCsKDAxz76G+97z/uKpSIReclnDtfXoaVS27Rp04asqUVqIUzmDOPEMEiogsA11bISVHySG0eapsiNvHTDNqOm94iAOXPmzJkzJ7fs8CMNQzzWoRnJb1RGkzlNW/LhSEO5+Shp/uZwggcecsc1GgQ6hsHXYTd6NH0Kh4agh4vB44jP9ghnafDajm2Qv3mjR7Dng87KkZ/eEcY9xjQCdwRf69Chk3Ex5m8hOb31o0iW48z6G+dWx81YRPO47MRxUhzRtFVpHVVIdgWf4M4HlIw0ZdQHld5ADLu7b7ijOKbocbquFCoqdLifyhjvneOFIIc9rmZhGNcv+sT/HhWaNE0RqBy3C3hEa06y8e7x32dUVVUEzEwOUFEFVEQU5Dggyv8gX7tQZ3JEnA7fJ1elarIzCmZSVS/imAikIgCxcxgii+NiyNWfX49mJxmU3VEPt7aRLoQ06Umz7thHeVpH+vbrDEq4SjjKe2b9bAxKTx2jnXJMrqWhv3hNBy/VJYUDogol5nqmRfpDVXWU9BTJf61H7RCkJ1dIOdegCcpNe5rvT5I/D/VvJJtQJ3nLNfVygmrW3CnrHkC5hY6c/KCvqooKkJw5AARVgXgVAjlKB1/qF94R/+KGZRSnNfkKk3+HCXiOshdMTl39aMgRAQpW78V7JSZC2nV+2FqW46Z8BEAUoiIggpKCQExMTAp4FQUBzCDJx2cPZ20fbofrZYSDP3g0Rzo0IE3Zk2OR5Nn07Q997/jcpo78kgN4WGPq6M8wAUykQKQiECATs+weoADAjni4/aTxn6h86f6xr0fQxtXYoH7lNG/9iDeR/iuAKDSxKQikIFLNtFeS0CEHyTenIEqL0HDMNWA0matbtMNuU0SZSQQ8JFyjwKZNm/ft3b9nz56+vt5kcrZiqW3O7LmnnnrqnLmz6h8d9id03Ei/TQUP9FcOHDhw8ODBffv3Hzp0qKe3t1arldrayuXyrJkz58+fP2/unDBw6Q4qjVJaOEaNO+xb4oUdqyodYYykaamjlqHGtz8UzZkJx8SISu4v9W5COupqkzFHGSbDa5glxrVvmgvC50xUAhBDq7F/6aUXu7t6ug529Q/0qyiAcrk8a/as2bNnz5wxfdqUyfltHt1X0FyxMBrjXv2Q9VKmcEqNGtgjp75yByjhUE/lwMEDe3bvOnjwQE/PoVq1pgAU06ZPmz59+uzZs2fPmlluKwE4flH7hsxJZrg+9dTTBw4cLLWV+/r7QW7Imda58+acf87ZiUcXiYTE3gs7iqN4/YZN99677NFHH12/fkNvb09//0AUeSZygSPicrlj1qzpM2bMePPV17z1uusWLz5zUnshijUMGbmbwBFH0evfT/J5rwDUeyEix6Qi+7q6n3rq6QcffHjNmrWbNm2uVKv9A/1Q9uK9qnNEhI5y+7Rp02bOnHHRhRe8+dprll68dMrkyawQVecc81hVSIF9+w8sX77COe7r6y8U25IeEfUPkILZuyAohuG555zd0dFedAWBOLixrH/f3n2rVq+OoyjyMRIHSqneHDERDFU/aVLHxZdcVG5rG/uvQRU7dux6cfXq2GuzvteLwBFHERF3dk46f8mSaVOnjnndwyOqTKyi69ZvfHnDhiRV3xGnriGQVJcXi8WlF54/ZcpkApQQe2GmAKhG8Z59B7ds2lRtnthFVaMoKhQKCxcuXHDKSYc/cJD45DajCvUqvb0969dveOiRRx955JEDBw7u2rNnoL9aq9VE4FwQBIFjLgRhGAaFQuGtb/mVa6+55uJLlp528lwhjr04IudYFMGoV/DIQQZCYqYqpPkTJPX+JZI14BzhoAQrV76wbecuBUAEZigrM5FkpqaPqtGUKZPOXbJk+tQpdERak/RIIYIAsWhloLp79+51L2947PEnH3744b6+vt7enmqt4mNfq8UiwszFYrFYKLLjaVOmXHHFZddf//bzzjtn9pzZxdBByYuyoziOQ+d4TBGd0WhMYFiXufe//6Ynnnx6UudkUcjgWYakWq0uXbr0y3/3pcVnLhKvYPIiO3bsWrt23a233Proo7/cvWfXtGlTAUpCi0ScbEEFIioqIsKqnZ2Tzjt/yU0fvOmyyy6dPXtmseBGuS2NV+YIqNViL1oqBLH3+/bufeHFNcvuu+f551dt2PBKrVojDsKwwMzknCpUkuCYF1FSKLyXOK7VAkcLFy684vLL33XDO5ece/b0adPANMjQGPYarVajMAyefvbZT37yk/v2HXAujGIvgy9HVa0VC8Gkjo5vf+ubV199VbaqkS/Z+s1A9dbbb//0pz8zMFDxKqm6Za17KA3iqIo/5ZQFX//61y666IJgTOIJ76VajX/y05999nN/VanWNFGUdL8k9UVI41ocBsEllyz99re/NXf27GTZo43Nifz7j275sz//cyGIKHwyO3J20KRQ/NVf//VH/q8PF0NWRTWKdmzb9uDDjz/w4IPr1q3bu3uPH5pGS4Dis5/7Xx//+G+M6QalUJX9+w+sW79+2X3LHn30kc2btkQi4pXIuULI5KDE7IAgC72qKryvRdVqe3t55qzp55577ntuvOHCCy+YM3uWqqpqqVQc88lJ3caaor+v7/Nf+NKtP7vNey/UFJvLHaDMnTPnG1/78tKLzkfzV5CkBzO5T33qT378nz9TJWVOo15MOetXJIpnz5n5zW/efPlll9QDdnV7IxcmG/EEJldGZaCyZ/eeNS9vuPPOO559dvmu3XtFVUVB5JjZOWbnOEgsclWIeECjWi2OqoViYdas6ZdddtmNN75r8VlnLZg3h52DCmdhu6MhqB9Tnc7OyaVCieCYKXc7TT9Y7Gw7eKBr3/79p8eLVMXX4qefee4/fvTjhx96eGBgIAiDGdNneu/ToBxUtdHBj5kKQcDMBI1j//Ajv1yxcuXFl1x8003vf+tbrp08edJhzuWoaPNz59iLbNm648GHHnrggQeee+65g92HnOMgKJTbJzUkWJL6QSQ+iCp88q24QqG94Ei3bd3+ky0/feDBhy5eetEN77rhzddePXlyZ96RH3Zvi8UwjvzC008///wLH374kUJYYKdClDURSyMvjouA1KL4lY2brrziCg5YRZkPL0iVSnXDho2qVG7riMSn8WPN7ZQSSKA6MFDduXPnxRdfMCiJYCSc41qtun79Bii1l9s1Dfql9nG995lr597e3iuuuGLqUZtyAFTTtLAgCAuFkhJElYRzHqSCpK+3b93atcwaK/bt3X/nz39x6y23rlv3chTFRBSEhSAs5A9OVX0tKpTCYrE0woYHn4tDh3qefPLJ226/88mnnty7f6+qlIptIYeeRESgrKmtTInEJbKvqlBXKLSJYNfOPVu2bH3yqSfOOefsG254xzuuv37O7NnHMxQzIkQUBqH3wuwKYUmUwARyIFIG6kEyKALtaO8Mg+CI91NF1r+y+e57lt1zz7KX162LfUTkSsWiVxUPhRIREasgFk07PwFEDGixWJrU0d7f37tv74Hbb7/jvvvuO//8895343vffO01s2bPLITu6DNdgtS5qe8uAHJeKfaS6LiSDAp7HDjYtXnLzssu8Q7yDz/44X/+9GdbtmxR0bBYAtSrClh8ejdQTTK6mUDMLCKa/N5Vyu3lKIoe++Vj69atWblyxSc+8fH5809SkSwVfJgg9CjUY6e1SByTV73/gft/8IMfbNiwobv7kIgWC23EhMxEFVWNY8ApkaoSJ2OiRARmBimUlJQcO2hXV/eye+995tlnLr/8sk9+8pPnnXduHPkwdFCIZo5ibiBAFOTc1GnTzlx81kMPP6rM7AiiqUOpSEaaVFRVRPyaNWt7+/s7J3VEEoec3LcHx54oU0cvONTT8+KLL1VqkUotCAs5jx9If4Xp77Cru3fd+o3XVattpSKavuv6zg4+jVFcW7F8uRcPdQA0Z0Rmbg6BpFAonHXW4lLhGMzsqclYJsBEoqqK2MdMzJSLASq5IFy7bq2K7D9w6BvfuPnWW+9QVTCHxWLsfRZXq5sjBEApFigNiR8nnxNVAhHBe2VHzz234jvf/cfVq1fv2rXbS1wolkQVzsFTMlAlIiAFWCTN8yBNbGcQMal4L+xcEIZ9/f1PPvXUqhdX/eKuuz7667/xjuvfFgYBEUQbY+o5uyknzdlzSueRVqVEJOpt0wGgHk3IDxxkT3KRBiIvXokVDCUVUiKQJr/K9DoEkQgRO2LKr2aEK6TxlTFUQIRqJHfdfff3vveDjRs3HTrUzSG7sKCqUVpImwZ6kjkrmq9qBVRUqpEok2NX5OJAf+Xpp55d/dKa+x544OO/+bFLLr6ovb2k2nSaKHcqsvMwmhYGml7H+VWw1HsapGNK+YAqeS+bN23xcfTFr3zjn//5e6ISuJAciaokcUwQqPnCIoamPogqhCU1Z4iCwB08ePCf//n7a9eu/Yd/+E5HR/sw53SUI2iKFicDpdx1qPs73/2H73//+yIiabeHAHD1jypATAQmckqU5rxAiUCQ9MATXUrTUNS5oKen94477nz66ac//ek/eefb3+FcOeBEr/IXRrZLBAKdu2RJJYqK5TZmp1F92nPK/iOoA/Tll1+uVasyqTzKwdZfDxg9vb2bXn2ViJWUkqG/xHxLv6IkNsdEJILVq9f1HurNZA6Z0g1/jyTg1S07d+zeDSZtaOKg/0lUp0+fvnTpUq969HdbdgTAx4h9jSgd4ZAheVTsePPmzbVIvvWtb//7v/+Y2YVhmByLcwHJoDNHBDA7gIndsD9Yx1SpRXEcE/Ftt93x5S9/+UBXNxGBiF2oCgLEI/15EpFoGhJQZCYJ1UNjyYKiAqKkKXkUx0899fSK51f+9m/91n//xMfbOzrawiBvVg+iKTCdXJGa1ddDm2RHm5bKP6em15KWwSBiUJISQ+m/abiPASQJYKKjjLTlNqEKJWLUYs/Me3fv/+KX/vYn//mf5XIHgDAsqEsvMCALdCbmQzo6XX/SWKF4ISJRIeUgKALo6xu47/77V7246jN/8qkPfOB9pBqLBIMjL2NVupEiBjSSc0MgFd24ceNXvv7dr3zl71UocIX8lz0CAsoSHakR8PNQDyhTsdz24MMPf+SjH9306qsy8oSSh0ExUI22b93y2c9+7hvfuHlgoFKrxVB2LqjfUoZZJtk3EqJkBBzSNP8IAyQgr/CKQltp/8EDn/7MZ777j//Q3dMTealGvnE8Q7Zw3pLzZs+eXa1WVdOtpGcjve+mszdtfGXjtu3bEy9jlOMjIPKqomvXvbJ9+07moFAoIs2oqiMKEVIBlOAcv7zu5QNd3fVUwcOexRXLl3d1dQXBaBUycRSfdNJJc+fMDY5D7nxiUA/9vpwLeg71/PpvfOyHP/zXSrWmSt4jvfCUhUgIgx6jXJMExF7CIKhUKl//+s2f//zne3p6uGmjnD3yaNNYJGn6tZIM0ighqKYhiL//6t//1Re/sHXH9u6+/iM9K0dHEi3R0X/vY4KIiFGrxY6wYvmKP/zD/3Hrbbd3dHQ2bUt5REEgyWmcpA+qd6VKKZWKgO7auet//NH/89Wv3nzgQHc4xujycDSHLBtPRzzsgUpFoA88+MC3v/PdqVOngUlEknGMTMKbFmwaoCfokHsuABVV0SlTp6564cW/+7uvbNu2A4DPfZBGfuQ36VU3vvLK//z0n/7Xf/2iUCg6FwZhSC6ZASkzWZsX1jQHW9OQbHbnTGPLzTdYEfGxEBzBff3r3/zqV7++e+duJiZkE102L6CEmbOmn3POObValBmM0IbKZzMrEXUf6n7xpRcJrIrDCJFqXyVetWqViBDBDeOONd2iiGjvvn1btu6UIXGoYfFeX3zxpWqlOsKl33jluuve5oXiYb7PoyW5nHIyR5mzT6J48smnVVFqK4lK7OMkxj+yCUw6wr08EhXVHTt2/Pn/95c33/zN/v6B5vU0X8bIbKDEMabUvEsnY4DkQ/rJzhMojj2A/r6BQli84/aff+6zn9+1cxcUIvn7Eg3eytgl55hx+M3mJVwVgXOP/vLxP/3Tv1jx/PNBEBLzoB9L/lw2xVgbj+EyV7Id8V7K5fZisVRub//Ot7/91a99bd/+/d4nvtmgfT78zjeugGHUJ9deNJ1gjRCEQbIpYs5iTdlRaSMsQBkAiFSTBze3LM0honHsg6Dw0EMPf+/7/9J9qCd/bY4mc4pYNPFzVq168X9++s+efuZZ4gDsklHRNEcxPYQkNkFExJQMtLJjckTMxAxmECUxM9GM+qlJlgNIvBaLpR/+8F+/+rWb9+3dSwSV1LtRzd8u0NFRvuCC851jya2wrrn1XapUa888t7yeTpludsjaFHCOC8XwhZUrFcrM6dqaHvl5nggcdB3qefqZZ70MVu1hOdjdu3zF8mKxlMZUB5Oe9SAMLrvs8mLIx7YSMlENkbr3Tel3RUzECii5YlubJKHV7N8s8DLMkSWnOv23+Rcmiq3bdnz+i39zx513BmGB2MV+f3JKWwAAIABJREFU+HOTaFZy3TCRY3bOBc4FLoWZQchdXMn/DmBVCsOCc6F4euihR//0z/5y3cuv+HhEjyX3k206sWPyJ0fiqBYGUmVLL0sRqOCZZ5/7i7/43Oo1a2IvAq1GtaRaS7LrN1mwLgJDNK7Z38zOmdYfquKV2QWFIFb52a23ffe73+vu6ooiz5SVMAFjvC8cdT6eDjLssz/zlnzjudQtGqX87zPxOyAilUrltttu++XjT40xWYYIIohiWfPyhr/6/JfWrVvX1tYmqXHFqpQ5hk07nVZDwIvGycNLLD4WHycOH6nUndlsV0mJ69IZeR+44K577vn+D/9t375DNS/s8r5SSuTlmmuvKbeXRQYV+TYRFgrPPvNsd3c3j6oaiVTt2rVnzZo1jl3WV2cYsnk/CYogCJ544onDnsnkuJYvX/HKxo3s3Og/jZPnn3zuuWfz6Lt7BBCQZI4wgWnoTbEhI8qgegBkBNMgY6ikiOLAwQPf/Na37rr77ra2UsPPBQlYwCPUH0iqmSqqPn1AtBGTkXxMpk4cx1EcO+eWr3j+a9+4efe+fdJw2Jp2r/7isUIBZVUSMI1cvPf/s/fdcXIUV/7vVVX3hJ3ZvNIq7GpXGyTtKidyENGI5PsBDoCNAzb5nMOdz/YZ29jGh32+89kYB8A4EAzGxtxhbDAYLJARIFDOOayklbRxZrq76v3+qE6TVrurhft99Jvvpz/S7Ex3dcVX7716YVhQ6HqevrHqzVtu+8dt23foo213lflX3nMACkAWbxl6dMMniMFtli0VYdqyH3zo4Rf+9jIPToNH4EjnHxIeB7IYfW+2+L8Fo+6e7zBthlsEhmEcPdrzi1/8UjkSALK5mQJAgKjAvp6ee++9780335SO7OnplbIgTdEBBdx5JaVlWel0Kp1OpTKZjG1ZUjpAUilHcxO6jlK6nF3QXARAcGzbks7A4OBPfvrT5198IWJCKi2JtLLGuwCk4yxYMD9RVqZy6FG4A4jF48mDB7s3btysbX2LjYnWR7/++uuHDx9GRMrtm9BT7rEcSSUNQxw+cljrFqiImtlfbM//9XlEbjk2w7z5SkxJ17hy2vTpkUgkbdlj66+erRXNRf60HsqiyqeA2XQHAQjIcZy/PPvsH//4x3g83j+QCv0YiCMFS2UMOUPbSluZlGNnHJmRjq0ntltATpWBATDODcMwIpHIYGrwqaee+vGPf3r4SC9Brl3q2Mv/AFoDI5UCUAo1nzViQoqADJiSiggOHznyldtv7zl6tLK6UggxhILrWPVyy/YNkqmQAsRxJDIWi8d7+/q/fsc3tmzZOZjR9vAjgAjC+IVfrd+vteRFyvONUZVSwmCcoePYACQY5wYXhglEUknbsaQjgQgZKkAAqaQq1DHud0pCREReeP6vv3r4sWvec6VNymBaMiqqW7Is+7eP/+F3jz9hW7a2rs7rLZdJRgTD4EopKdX48ePa29obGxonTppYW1sDCH29vb29vWvXrV+3bl1Pb49t2YjMogxoFQ9pUsBA5wxGrhQQop1x7vzWv82f3dk8tck7jNDDxQAgHjEB4KSTFv/+iSciBvf2OvLWrNsox3Ec21n+8iuLFi4cYrIjglT00kt/S6UHjWhEB1wMlrHmW9H3y3YP0RDZvn37nn/++SXnnO3bQYZ7kwAUKCIYHEyvXrOGiBhyl/Blbc4MAGxLCoFnnHEGMjCYGBN+rog07c1+DH2h3Cr5LqSCcX2ezjhnjDnSUcpzjURHMBAcGcmgqxWRUmvXrLnrru8MDqYUYCwed/sKgXR7EXXYiXQ6LYTgiMSovLy8vb29qWnKlMbJ5cmkksqyraNHj27dun3Txk1dXV19fX2IzLFtJkzdKgLwzI0IEdJWJhqNEuLvn3hy0aL5l7zjAodQOsrkxyX7FyQzXqAK7RpHRA4yAxXIkDni8MoOORcxPjg4ePfdd69dt94h1d/XT4DEuEenckmnlI5hCERuOxYQaRUeQ6FFt4GBfkDg3OBcKKmjiqK2NgPvGJiIkCERDQwMCGF0Hzp85513fueub0YjFW6VhtcM4d89cj7ZnWemaaTTg4jQ0DBpWlv7lKYpU6Y0JBNlKSszOJjet2/ftm1b16xZe6i7myFwYaYzaSOwgPU2T++DdpPmjN17770XXnBube2xrU+37tz9y1/9cjCVMoTwSizAnSslEdGR9pzZc04//YxTTjmpsaGhurJKmIIzl44C0eGe3h3bd6xYseKpp55evXq1e6aPucvQi2aNhhHZvWfPt+763re/9fVYPObxIu79BOgAzF8w/8n/frJQ7+lWux4jr6x4VToO50Mdcfb09L722sp4LK4tc4ajmNBGCS+++OJZZ50hDOE3RK97bbXBAB1UO3ft3LV7NxdCcJGnPUIAMAwRjZqGIdrapgIA0/adxXegESG8oXpGG96Lg0pgyMOYAIALUDYpkuQoBMhYFgJwwVFrF5ApxTA0HaSU6cHBO++88/DhoxjiWDUX6enKSTpSAnAhGGOTJ0264B3nL1i4YMb06VVVlfGo6XY6AgKkLXvbjp2rV6164ok/vP76yiNHjgbVJk/JRq7ASAhKqYPdh/7r7h8vmD9/XP046cCYGOUUhBuDB5UC5Q7VMI+iCkE68uWXl//x6T9ZluOZ/w1FZyIRc2BgwDSNxoaGxsbG5uapDQ2TE2Wuxdj2Hbt3796zbdv2nTt29PX0KwDOeZ5BHPlrWRFxQ/z5mWd+9eBvrv/wdaYxgpDAxW89Vm8QafsycKQ1uWHi0qVL33HhefX19ZUV5Yl4lCM6BFJJK2Md7evdum3HU0899cTvnzja12sYJkgtFSL43mbkUjqdiCgWK1u7dt2yl166/NKLi2qXAQAAAe699/4NGzbGtPdvcVaIiMrLy6993zWXXnLx1CmNKAwDwd/Z0BPc6ioraubMnt3Zcc6SJQ8//MgP7/mR4Ia26A2bXYL3tyMlIPvvp5468+wzrrryH7z3u//b0kHOZs+eVVNT09PXR6TAD/gfgm1bnPGNGzft2r1vSuNkRCx4J2e4Z/eeLVu2Cm54yvdCg5TLgSsAePHFF6WU3DQou5uYG50BAdj2nbt6+/qY4GEqk1WQklLZTc2N9fXj0Zvj6ArTYwP3cCb0TVbR6O+I7nbS29sTiUTi8dj4ceOSZYloLGYYgiESEIBUSkUixrj6cdrojSEopX7x61+98OKL0Ug8eKkfgYgxzSNLpcyIMTiY+ofLL7/u2mtmzZoujIhlWWVRQwFYtiM4MzgDAE30p7U0n3rS4mf+8tx//eDu/QcOAYRIa/YoKSJAXLly5UOP/vbWm28wOYehpu2Igd6/2dSCAJFGrpvzGW0G0Dc4cN/PH9i3fz8wRv6bihfpOE5ra8tll1+65Kyz6upqKiurkvGY7RAAIENHOj09vQcOdK9atfrxxx5/cdlLwjCldNwSfb7Dp3xKNwF+97vfnXfekvbWqcM/WMglc6604xlXFGqCywZLZZeVldmWtXDB/C9/+YstLVMYYwYPbFsEAufciMdi8Vj9uHEL588975yzP/+FLxw4eIghJyLOuZReQA7t1k5MASqSUsloPPbXF19cevFF2oo3fxnpybNs+YrHfvvbSCxKiIwwYP4166sUgOKcC4MzFvniF//lkqUXRSOG3y4/0IV7ZoEIAByBG6Ktpflzn/5ER+eMz37m80RaogEK2xS4vaEY545jP/zwI+ctObuiMmFwQegGI5BSGow1jB8/rq7u4MFDnAl9xgsYElxRMc6R4Z69+9asXdvQOJkjOFIJbTsWcqK1Hfny8r9n0hnTNMk9Xs7vF5bN4rkqqlVr1m3ZtnV2R4f+NXQHMgCbFCCuWbNWKYVB0yCHy1cKOGfz586pKE9y15hi1FaOhaEnNStYKCJou00ixlA5jpWxZs3quOSSS5acvaRh0gRhcE0GczYb0zTJPZbFLVu3/+Qn90ZicaWAMXT9fz3aKRgzI1HHcVKOkx5M/eOtN338tpsMw9SmI/GYqfvFNAV6XePulAzH19dfeeVVTc1Tb7zx5oGBQUIeBHCDQPznjCkiEHjfz+5fetHSKVMahvTnHgHyjRPcD8cxQuhpeBnjf/vbSy+88KIiQMYYCx88+mpQAoB0OpMsL3Ns58LzL/jil/65PFlhGFxbvSkAxt3qcENU11RX11S3t7dceMH5P/ivHzzwiwcMjpJIu4u4dkXekT8imsIw4mWbN29+9k9/mt56w+h6ZmQggEwmddIpi/71K1+cNq2FcR7hhe33kAARI6a55Mwzf/aTnzQ1NqTTg45jU6FTQiKf4OCq1au7DhwsevROYNvOPT/+se043sosoKJmjCFSLBr92le/euU7LzNMEd5lh0AmYynGly5d+vnPfz6RSOoT9Xx6q21TOBcbN258/vnnTSZSGU+lTRQzTQNZPJHo7Ow0jMD0N6dR2ocEETds2CgQJCkhBCtkE7dh/XrGuGXbQ9a9AAzDeGPlm9pYJv9XqdSRw0fXrF4tpXRPqAtBG080NjbGYtGw5Pg2AxGJZHl5xT/98+ce/NUvbr7hI50d7eUVybJ4PB6PxWKxWCwai0VjHjjnAMARHNv609N/tC0LEc2IdlPLaqmU8sjRIzquycc//rFPfvLjtvTM40K3Fuwdg7OyqLFo0aIHfn5/XW2tklLJwqoghii4sWfv3l/+4pei0MnsaPrkLRsHJODI05Z9//0PMCaisXihmRnUIBaPKKluuummr9z+r+PH1cVjphlQBkLPygtJAYL2+4xEjC/806e+9KUvJJNljMFgqj8n/DgRSSlTg4PaX/5//uePmzdvHX6LRx603jWKIc6woWHyxz92W2vrVCIVYUwq/8xY5euUEUAStLW1fe2rX53a1MQAbMuibOR02+Huw9u3bYe8HwBAEaUd9erKN1999dWhmsdQ1/mjN3z0skuWOtqrZXiIRkzBkHP+D++89KKLLkSvtJz+AI+YDg4M/OnPf+46eJBx4bsp6UCdZYnEvLnzTMPQ6821istpFoFhGOvWbzjS04cEOV7UCEAEXV0HNm/eYpqR0MDlVqm4DwmtXrPGlrIwASPYv3ffnj17AbC4Opx0ZKfWlqkRwxh7Vu5YZRGRNqwlUslk8pZbb/rAde9PJpOcsZDREIUmYWCwwQEAcc+evcuWLbMs28pYuWffAACglIrH40rJpUsv+uD734sIkciwnHaJyHYkAQjB58/pvOmmGysrKwPv7EJdWlZW9sen/7R1++7/jZ1iuPCZjpdeevnvf18OoP1Y+RCkQ3DxsY/944c++P5kMqmLcEJdrYVFRoBASJKBMgWLmcJS6vLLLvnAB66Lx2OxWBwAMPAacpcYAMTj8ba21rnz5nEhpCI1vG12RGQOtdaEFAnOo5HIpz/1iUXz5iKAYEyBUuAeoXo7n8diYWAVwxlbOH/B1ddea0Qi3BA5Sz1kggQAONA3sH37DoYMPAONsHpfKfX8X5/v7e8LHg9Zyfo3IuKSJUveefnlgqFgKLy45xiuYp6eQb9CW75UVVW+66orGhsbUUub7gPkDZemdKAUrV27dueuXUTkGooCalMUwfmkSRPLKyqUxw/q9gTknVCnWO/q2rdz925AlOR3JeqDAgLYuWPHnr37OBPCdV9jiAw9GzOGaGcsbb/qK1U8AzowTXPNmjUHDx5ghdS8jPEt27ft3bcfwGc1CVxjAV2GYqSktCdOqG9smORp5Ty72eM7g3BVJaAJp7sH6BmlPFtLRSCVktJRQEKIpUsvuuL/vNM0hV9dFgwrun0SXCgJgGjDpk279uxRbsg8RaT9dsmzSQUlJQI0T2267rprqquqGEI4XoyvqCoITfR1jIp3XHThKaedCgwUKOTa1TAXiUSyq6vrhRf+Gu67rJmJgJ4z+FD8QNH6eB9GOzY6D4ZU0nacRx79DXIGDB3puPVDphlrpi8AzpCk84H3X3ft1VdXlicFRwSQQJwzb4i19SkycCcueo7tMcMoTySuuuqKkxYvzqRSHJAToCJp25lUiqTqmDH92muu/uY3vn7Xnd/89Kc/1djYwIYdSX2k3BxyxiKmaWUyC+bPv+D88xwlOdPkibgXtin8bv8zefTONMS5Z505bdr0wcEUQA6vFp5FTDqq+2C3kjLnBwIgwEOHDr2+ciUPScp5s5CUUuXl5Ve88/Ka6mr/+4Jdk0/m9L+agevs7Dj/gvMHBgYYelHqMU/tgXzv3q7Va9YL5O5hICEDppfp+LpxtTU1ggtHBjHR3NrqcJjIpFLd3d379u0lABnqFgVkSwcQduza1dfbK5X02BcEj9YAoW3bRASKHMfxzF+8QhA4F/v3H9i5c3d+Gwkgnc7s2L4zk8pAVlBP8hlzBIUoGeKUxsbacXWhzhwDMgc5iiTS785yuQMEzpkQPJ1JV1VWXHDeueXJJGNMcO5rwAIaEdDfYB/rHxx86eXl+7u6FJHQvsPB8ZZ7myKplHPZZZfMmN4+hAVfgfojai9ghoAA42prLrzogvKKCkWK8cJ2rFbGdhy1avW6np4+vxPCK8i3OcrDsetF2dfooLudcbZl69bXXlvJmNDaJP29W0H09PgkU4MDJy1e/NGPfjSZjBMAY0gAOfYrOnwOAjJiXG/2Hs8IQLW1tddee20ikYwIIzWYGuzrr66uPv/8C77379+950ff/9xnP37eeedMnz49Ho952u1hTbwRC61upAZFV155RdQ0DM49A1GWfRV61rsmTp58ykmLY2aESHpuVfnJwMBxZNeBrnQ6XaDeCPv27tmxY0eq0K/BbYwtXLjwpJMWO/YI8pbnV5shv/SSyyZMmGBZdq5iwqN0nDMitWbN6u4jR0POLu5dEyZMaJnaopRSUhXYlL3bDh85snHDRsd2IiEB2ZYOEfX39a9c+YZlO1DIxJpxFo/Fa2pqEJHxAmc2SqlUKrVu/cYcG0z91+BA/+rVa2Rw/lAYRLKzc0YiUf4WyVlDK5gQUQjuSGfq1KkL5s9jDEVRl95cKILB3r41a9ZYluXdVgBENLlh8sUXX8yFMWqd2UBa2RLmzp41pWmKUpJ5p7c5SKVTSqk1q9fs3bvXffto35iPsSpKK8XWrls3MKiDDiBAYW8HIorFYtdff311VRkM7+gdiTHgzAtnRARIdNappy5YMP/wke75C+Z+45vf+N3jj//sp3dffuk7Jk2ckEyUaSLr76vDZG5HTOZs20mlUnV1tbNmzrIVSS8g4lCNydum4rHo/HlzK6sqc+/LAimio0ePpt15mQWl1NZtWw8eOGSakbwftT4OiDAeLzv77LPiyfJY1Mza2cg7F/IuKnLpnwTD6W0ts2fNkkrqbg06l/yXIilat25dKu0eQYQphlZpScs2TROzOsOrDSgAZVnW5s1bBvr7wkMX5YYhjMNHju7cuRtBC6pInqMmKUJE27bnz593/30/LSsry9Z8e24AiOl0etu2bZl0mggc6W5Pmi3s7Tm6deuWIAJDkWViGkZry1RTAGEh/esYQfeLf9zvw3Ec27YBoLl5SjJRlkPph+ZcGMLRnt49u/cIbpAXHpwg+xkCIDhnyTmtTZM5ehNAAfnJu4KJkSVC5lyRCGMc6ydMOPWUkxnjTB+t5lYQI2ZUCHG052j34cPhJowtstnDkT+OzLKd9Rs2Hj2q7QEVZfmnBToqIcTZZ589c2aHTigVdsXCcFgMn9/OaypDRGQ20Q033HjvvT974IEH3v++a6Y01KOrfwGpQDAwBWovw1BzjtFtIz9pJQTChobGWDzCGPp2tcWAhS6pqKq6WgjX+Esb4Po2uASu0yswStu2LVX+DE6l01t37HSU0mENs50fEYBxJqSUEydOXLRoEWijSO/C0PpB709f6vFZaIRAI0gEguPpp57BGJNK+o5TwVZCCASMGUcO92Qylhv0JASD81kdHVUVFSbjWhMU3BCyPZZSbdi0+fDRnlDXkQIggoOHuvfs2atZaSkVKT8iAhGRbdsdHTMWzJne3DzFkeFzWLdkxoVUtG79+gMHDkCOtA2we+/+/fu7QmdHhVfc5IaGltZWL6oLwPAilI0IWk7T1fNc5ryfEAFA2U5DQ6Nf0aAXhqR0SsHO3XsPHDgEOqokaXdrCp4mQqJ4NHrJRRfpOjAFTPl7oV7dPjGDLMKmsi9vgi1atCgWi1mW7U07vz0IgETAGe/t7du3b79Urtn/8XVc4e8wCHk8ouJcDVxqML1x42bOhBvSAlS4Fe6IKRJCnH7ayRUVCU/pBkheB4aXf6DmKHDYxRA54mmnnnzhBRdUlCcFZwig3SwYgnei48uMnkr1WBtErt2cR2XczwVajwjIEomE0IlqRgEikk6iLB6LRRggArpq+Xz3SCwawy6VSu/ZvVuR4jz3HEODMSalqqysGhxMrV+/QWu/cgOI+gxZ4Ze4Q8gY40wQUN348YwxFZxlZtmXaL+U3r7erv0H2qa25DYaoKWtvW7cuC3btg0hnCGyPXv27ti5a9rUJn8SSFLpjL1t67ZDBw8y5nmOoxuqkIgc266qrFi4aKFEnDV75msrX88vWUrFGd+2bcfe/QcaGxuNkMJIEa1Y8XomYwPo1GJQrNvb2qZOmlDvSMU500qZgkY2xwM9Qp5uM+snxhhDtG27sqpKj43SVGoYFWAImzZtklJy9wwq6yGfI5/S3CwB3ly7wTQMleUZHeyNrrDgPhE+xEKP+DEppQ7HaRhGKpVCHZI6p6VEiCyTsXbv2ePYNo+Yx+PzFZ5RWOjLUaOnt/dw9xHGuLfQ/B06zOJQ3bi6WTNnmqGDacyuA4W+LAaXkQcsYNRwHHDJXI7mQFO6gi9CRCKMxWKGMfoodwAQj8UiEddppuiaByxGgTKZTNeBA47jcGF4io8wyQFHOoYh3li58v3vvy6dSSGQYCzfhgML0rhcvYMbt6m3r5eFTzzyc+gR9PcNdncfLjia4+vHNTY1rFqzOhJNZC+ywNXNMIRl2evXbzz3rNMDDw3EdDq9atWqVCrFuVDKyWHDHSmT5cnmxgmptFywYP4jjzxiOUqf8/qF2LYVTSallN2HD2sCTZ51tCJ64403BgYGIpFYQZJBpPdMWLRokRExSNGYUrYAvus+QhDoxV9SOryRUqqivBy8oFXDrAhH2LZ9m5TSMAwdqi8HemZs2bLlXe96N+csGjUx93ei0OLzDZg9Lsk1CCdUAMxxHAmKC7O3t88wDNu2dcLPrBJdE1Hq6emRjkMR4zhzMOfTkTEZpcOHugcHB7y1k700vJNxQGyY3FA/oZ4UYRHXquGQubcIwg9kk4+hZ9Coq4uIpmHorSz8pf4vq3jt/5BFvtwrY2WOHD5CimzLcQ9bdbwkrzWkiDGRyTiWbeuHMv4OnMe9q9zG+AYZfmUQABjnBCwr/ktWx+nDFNi9y9Moewb5+i7DNOYvXPDIo7+NRBM6maEX7Uj5ZvhKUiY1uG7N2sG0k4j79qtkMly3bp3jOIxxjyuFgNnkfMaM6dWVFYbJ2ttbm5qbtmzbbqVt/xgaEQ3DzGTSvT1HX3vttbPOOCNZFrUcJQQHgsNHB9dt2CAMAxmGujAL0WhscGBg0aKFwWCNHQpKHczL0edPE0aARPqox9sds/xVh37F7l173GRMnpcaei/RZ4c6lLem+4MpnQtRO8B7ArI2w9QPeyUH04mYFnH9U/KM5WjnRe376wdIA3AJNJFSSnV1dWUsyyyL8FGZ6xcU2IoVpI2zjrU5ZP08ODjQ39+PDPMcbFzdhQLiiBPH14+vrTO9GL+aK0cEne1YAeRyU/khcEaAkZF0Btl9RF79igFz9b6j4YuzdjXEUSwbKZVtO8IwPX1wnl9BgThF/m9Z+qcwjdPB70LBKSn7grxvsn7lnBORZdl57VEIRFLNmTO7orKiaKcRA2CRSPSNN1YNhKNpE+ze37Vr504hPAk9lLiZMYaALVNbYomkI52amqqJE+sd2y4ri4fZB84ZEQHCm6tXK2Xb5Lo5SYJ169cdOXKY8aLTTgg+ODDQ3t7W0NBAcByS1ZDIct0vTPuQSDHG0dOJDb8mCGDbDmPMnxTZ0zj3RcXWQJiHIy/jjY4+FqpwUB5jSESMhSe5u8ICVddxC5cUIiE5XVe0JcNGJpNJZzKF6ui9h4AxrKquwOwplMcOg0cYw710zLYXmQsjQVa1yBNXhyjSVaPR8NIKHAujInEAAEpJ27YMnQ7RwzCfdduYe3BR4MbQba6qGopfyEBzT5aVyU34o/9l2Nk5s7WtTdsOFzwL10zsvr37Vr6+ErxR4IirV6861N2NgRgLrgcSUiaTjkaNGdPbjIhBpMri8eamJsF4OjUYpv36XYi4ffv2/Qe7GYLgTBEBwksvv5yxLFYkXYaubDqT6uycUV6eHGYnjxqaBhQeIE93PYqJhwCOo42ByJ0tYSkBg2k/xOSnrI/uReGFE6itvHZgEM7ZO+/Sx9R+xFkvasVwzX6LIn8r1n8MY2EMRUTS6bSVyRRyGvGYIgTBeXV1NYQaUUDkz63bKOjXKOmdG1bTV38wVzQo2jWab/cOyI8HrvWljkjonlqq/JVfZFMlICJFyjBcuRaZNq/GnCsoyIM+zfEvd9IzT0IOAjUjIkcUiJyBvtx0vtmXWx4AKikBQXghYvSK9JU4OhZeZ0cHkkJF5GgNd9bs0Zl7BzPpN1evJgJHgY6U9vSfn0lbGdIBdRm6HCghEEskyurGjWtobEAEzjAWi86YPt00DNM03RXthYEhAmTY1XVwxYrXta7LkeA49Pzzz3NmFN/1EQAM0zjz7LPeOlYu62Wegwkr4MMfcCfDrIl+QCrQkZrQn2yhmea5H4XODosXBQBIgfF/yAvAHRFk2oqcMMT1MW8CAoDLhiOFD/2VUsfJOfiVDxmvIiEoCCUILvyGfHklVCwyzjjXEflJEciQD5Z7SIiMaTfngsXrqJwckAHzLzh2f+c0a+hrKIxYpK8jAAAgAElEQVTGPFjHYT9OIheq2rC9V/JqoqTMTsE5+iVYiEMYMb+vlGIIiUTC+yK7UALB+amnnKqkikQipmnm65VIu20ivLz87xlJgJSx7f3dR7Zt3W4YkbwSAQAGBwfHjx8/ZfJkgYxzQIRJkyfV1FYBgCuHolsyADDGiNQbb7zhSHAkcYS9e/ds375tCF5YKZlOZ8orKubPXzCi3ngL4I0IsZESBK2UG75H8/HjWFTYjbqLiPF4GWccGY6azOEQKzmI7suOqZMrUjpjjBk5YRCzIw4QQSZtFczH9v8CRkzmtGhz3FQujFz21k8OM/RjuWa6o4XvtJEnhlKeE3jBy70NwbX+q6qsKNRIJCDO8eSTT66tq0un04XCPJDOTi24WLFixZ49e4HAEGL9unWbN2/WOjhvGgWbmOPY09rbautqyP0epjQ2Tp44Udp2kPkYEVzLGM45X758eSqVRkTG8JVXVnR3d2dL/TkzFaW0p09rrylPHHc6gSEx/JJHaAMGY86EYijDSf7lM0RIyAiZFloVy778YOXlySQIbqAx/OQGYw1/7hT4gXEupSpi4kHe8Tf19fWBm9r4/zkIn8/MZzgLBkn39P2uGtVlWf0nAienY+1lOiIQgmbnyRXWPRsocpUV5KoBQ7XS9RbcjJhESjqOd2IbbopWjCoAklISKcYAiJTSKpSQBsE7daKsh/1vPPloqCXoHk8yRCIlOK8fP07HiPOfcbVoRIhQVVneOrVl+aEVXlzS0HuQUMeoRGZZ1prVq5sbJxHRG2+82d8/WFaWEMIk18OB+e2NmJG5c2YBQyJC4IBYXVMztbX15eUrwLOcIPDPZJBzvmPHjp07d05vb7OUWrnyzVAS23CeR9DaScZYJBqdPXsWcM+oM6tdY4N8fiSIEexNNtdC17VgAK+ix5pp+j8GsXg8X9WSbSZNRCSlAwAU2EDrVxNAztmZX/GcogIaF3KVwWxKiyHtlKqoqDAMA8Nm4m5B7nT1djd3XHJP2wq3GrN/Qv/7XBHD/T18hoHBMwSmYWofOz0fsg5+dABAQKXsfV37M5mMMAxe9Ag1d/ssVO1Ach6idSNFQOagEKUrVI9ciRVz/h82iJDQZ6S8OeJae3qjklWhYABMM1JZWUmwQyopeLAs/ZpwwdPpzIwZMy644DzNIqlQDKJg1lB2jhWEcH+EUnwWFXYQGCgGAIjAEWOxyKxZHTk9qcO2ahO2WNSYMb391ddeZVxnU8bQ4AIyZMCUIkMYK99446J3nK8UvfnmaiGEt9hzlREV5cnp06aHZh9GTWPe3Nn3339/LB61tAYw3EIEy7ZWrFgxfXpbz9HeTZs2x2JlXuNzGDoEIklONGp0dEw3DXNYipCRI+utPmXIvsfbc11uH/KqMUSt9ODV19fn71ehpwiAGhomL126NBaLkFIqK6GhAiAY0oVWR0H3tPKEbkXdoO7Z/CfzSBcBqLPPOjNiGLk0jsBdal4u2OCVeGxKl/260IIK5k8OPQk6IYvMIZQnk8lEYjCdJiTwaHGY0gGAo9TOXbsOHOqeOHFCXl2Gi3APjDGZG4tCRoeiSyb7sKZwM6ORSP34esHXyJB4G97YtbvC+PHjbr31RoHgEIACbUbmvzXn9Tnc3PC1OD6JtS1iDMyIKPSwS4eEEPPmzf31Qw9R4ZSGOksiKolvvvnGgUOHLNteuXJlNBrlTLi0OdsGfUpTU1t7u+sR4f3Y3NQ8fnx9b18vuqwcELksAWcMCF54/vkPvO/qndu3b926NRqNFoyPoN8ipayqGtc+tUWn2nhLMSxhdFQTXzBontrMGAeiIYpIJpI333RTPMKIQBQOYTz2QDep09smsobJ3LFRW1NVVVXVdfAg5J5N6NND95+9e/fu2LGj4TjI3FsH96Q1H8eIFXHcLyYAL7XlEAwCZeexDO4yI5G6ujrOWO6+5j5HtmWZprFhw4bNm7drpsw0OTJ9JMp1Lk6lUGZfDqEk0JcidABt94Jil0PMIe4QJ+CccwBmWVocz+0o98SNsSlTGmqqqm3bIkWkCp0uIzLOtm3fuW37rlWr1vX19elwdNmZsd0gfvPnzy2L6lwhnrUFQVtbW1PTlIKKS70ZbNu6Y9fOvVu2bOnr68u/J6czGxsaqmpqMk7mGHeOEXSnjS2RQYDJkyZxxgpG0/RfuvKNlevWrUVEh9AmHrqYTegA8y7Ul41oI7OR2f73iA6iAygBHQLbnU4kSbmXAm+yMQeYZEwO08R59E1HACyUQXVYSFaUV1RXKU9+L+yASdTd3b1z5y7HGSof8XDqCgCpVKq3r097jme9ZLTFumQuHIsWvRlWnJbRqI+EVDbd0v63ngo/NP8CVW5hlMXjLc3NgnMGqI8LMIgkqlxDNoR0OrV+3VqGGBHczSrIgDMQDA2OhsFMgwnvMgxmCiYE9y5mchZxL17sMgUaAgwBnIMw0DCZ4TrtEAuZ3SAEFhL14+paWqYioM51rX3IVfZFCIe6D2/bvmPzli22VIBMknJ85SK4bk9KySVLlkhPcaRNaARCdXnZvLmzM+m0N7yBdaHtOMlkxc6duzZs2rJh01Yiko6TP3v9oAaGEK1TpyYTCc/zeCyTJefDFfB0i7RBSaDdH+Ws06xLc9OU6qpqDFoQpHD1p72TsZ579jkiYEiMAeP+pa0q0A3Oyljo0uFakXPknHHGOGOcu8c9wv1CcGYwZjBmCJ1pkTPBUTBknmo5X284UrC8UfQkVd+cb5iUzq2IXlGJRLKtrSWdHtRKdHSDRoTfqxhiajD9wl9fPNB9JGeND+dlfuJYInKUeuzx3/3r7bf//skn12/YmLFsRUAE0ouZMAq7mzx3YvDVnsXKCoI2hJ44HozmcSF4Y2NDIpHgRRJQ6JJTqcEXXnzxSG+fZQebTI4tqEa+CD0KPVQQy7Fg1ARNfAnKKyrb2loZAgUxfQqWxp588r9feOFFAEBEKYPNjYhIKcvKJBJlnR0djgr7Ebnz4NRTTiUlIbehoIgGBgYsx370scdWrHiVMaZUgRgwPsrLy+fMnlWRTIihunrMoHkG33V/rEKgOA5VV1c3NjSoImeBetqb0eifn31mx+49WRaX/sjmPRr6hvK7+m1G/uu9PdY/eBhN3SKm2TGjgzGWd0YSegsiE/zFZctee/31cGVGBAJwCI4e7Xnkkd889ODDX/nX2z/3+X+645t3/u6JJ/cf7NZSva1Ijjw2v0vmCrruF6+M5j8gRIXfbhDRlClTqmtqFA1VAceRy5f/fc2a1b5Hl5vBWRcyJJnTKBojNBt67fiBeYYCUjwendrSBEj5kUSDAhVJKV966aWVK1fmmbMqZEigHCczf+HcskScsgM/KUVK0czOzimNjbqh2dYAGE+UKaKnn/7T6lWrLMuSskA1FJFSijNeUVHR1Nxsk1Rv/QL2XffdzzkDdBzvV4qqqirbp03Ttl1KZUeX8f6Nl8W3bNny3HN/EV6P+RvIEMLNcFb020D88uuBwdfhLAPDWbb+hgoAsHD+vPrx9VpxjCy3MwiYIrIdeeRoz88feGDUdVZEtu28+OKyDRs2JhLlRw73rF27/t777vvkpz597fve993v/eerr78JpAQLTrzV8BrDwvlpcvooby8NyytjmJlzxEAABGxqaj791FMZAUcsZC4POnpVV9f+Bx74VfehIwaCVBQe+TBy+ivM/EtFGUvu3LX3Qx/+6E9/dv+2rdsHB1Mk1WDatmyp71QKLLtgthmfJc/aZdtam2trq4n8d6IbkdXrce3DRgRSKiCmCRGiK8EpsgBlNBa54PzzAcBlNTxah4iKsH5cbXv7tIH+fh1J3G0mAjKwLMuMRhSCQiREhYFjAPoEhUirsWpraxsnN3BAcRx54IYG5XUQQJYjhO+ZM2pKh4iJZGLhwgXxeJyIlJKMce39QqGMGrZtG6b5m0d/u2rtRkeRgSCYF+8si1sPLt8fxv9OADCA7u7u27/69W/f9Z0169b39vWBcsAVvmhsedWCVNYzzfNvcTuY5capyNnHs5RvOsobKZo4YfKpJ51KNklL+Qe/2vdDjw8wLoTJufHyy3//8tfuGMxYgxnHUTSEAOuvOEcpRYQAkuDAwYMPPvjQQH/KlooZEQVMGBHG+PbtO//9e99/97ve+96r3//De366ZcfugYydHSdrKIzYdT/7xv81/hwRDA6LFy2KRqI5O3P2bSgM4y9/+cvjv/v9gC2lY5OOUn6sqisdJlWBo4AIDh3q/s53vvvEE3/49p3fftd7rv74Jz798KOPb9ywMdU/YElyCPzeGJKbIwAiAill05Qp9fXjC9HFAnxD3m2KMSBSyWRZW3sbY5gT4QcRBANHwZw5c0wzIh0nrHfPH7mCcpwQgnM2ONjX0tRcnkxyxtlbRubcioUaMbQEWDQMYdZzWU8bBjKGM2d2Njc36QAnQL58HMwHKWUmk1m/fv1999934MAhi4CPXH1hKzpytOdXv37w17/+9X/8x3+8971X33zzrT+994EVr7564OABrR0mGLHkNQQom6PxmDetxNW2buCpmwoCCzmWuJSAMTQEXnrJxYgYjUWVCs9Hb+shhoicc86Nhx/6zc/uvS+dGgwXVHRgABgyrXRLDQ489OBDr/x9hWFEIOh4934hBDBc9tKyO77xjZtvvnnlytctRw5LfsoxKCFPXNUfilCOMAM8JgM1+h1t8eJFMzpmrFixAouojYjIsaVS6u4f/jBRFr/yindq/6d8RUWWZQkBKVDaaZZo//6u7//gB08++T9VVdUEePDAoaee+uNf/vJcY0PjvPnzTjn5pOkzprW2tR5LceXpSRA4Z+PHj581c9bKVWsKhBygY7saaCvWhobWxskTvdRuAbgXhf288865+0f3DKZTgIiow1VBeIoO8RopbSKybHve/HnRaFQfPxRPwjJm8GlPqJrDREHZxTXU0Pq15qbGxYsWbdq8ybJsJR3teQoAhK6pESHqnON/+MOT5cnkbbfdMq6y3K9D0Rdko38g9cO773nkkYcBoKwsmUplnn/+hWUvLZswYcL06dNPP/3MBfPnNjVNTSbjI23hEAhZiKC/fBG026xPBkcjhOkEWqecsnjBggV/f+UVYUayzJ71O4J6YCqduueenzAmrn73lZUV5e6NxautdNJ4Wz3464d+8YtfATLBhe1tvZpvBABgKEkxzrkh6urGTZ40afhNERBSVIVRNMUDIQAyQo+LH+Wc9x9UwYH3iMegqrL8lptvuvZ97xMiRjqAiEc0XLmAiAgZF319A3fe+e0NGzbcevON48ePJwQ/em7+Rq0ACIEhKoRn//Tcj35097r1GxzpMM5RKcM0AEBKuX379p27dj777DPjx4+bMWPGWWeecfJJp9TVVBWjuR5Iex10dHQM9PdXVlYBYK6CkdxAGkFvAUCuawnNnNlZkYjnZuDxpjhjMHnihOampvUbN3hxi1x535PcQ4Ocq9RRtmULxmqqqufOme05SYx9SPR8aDrKwlt0mOSNam/1BzoaMc8/b8njjz8mpZLSQe2E4w8AKe1QB6SUkg888Iv9XV2f+9QnW5sbbUmMY3iqBBolpbT3sCRQRK+++tq/3fXddevWp3SOGEQiFYlGiVTX/gP79u5ftuzlmprazs6O00475YwzTp8wYWLEFIVSAA/dJG/GkOuqmj1XmB9gbHj5yXLO3gjy/i6LR99/3ftWrnwjk04bpgluZALl9wZ6myAy0ds3cM+Pf7Jx48abb7qxpaUJCEiBYCAhcKGQihxHGoIron1dB3784x///vd/6O8f4ExHG1PB+wkAQAhhW3Y0GuecnXPOkuqaGghxxFIqIRgRKKV4XkixUYshvlfQ6BGaMZj9xbBLQDjrzNNOP/10x7H1MX0+zWKMAQFjjIB+/vMHbrz5tpeWv5LJSA7gKJAKLIdSlsw4JAkUgK1AKuAMtmze+olPfubmW25e8eprGdsShkAWME6cc80Y6jwyjz766PXXf+STn/jEgYMHxDE61Q2p0tnZUVVV7UdmKdQ4/3KZkTAikWh7e3vENAsFwiX9fCQSmTGjw7ElZy4rB+AXB8U2Mrd807Qdu6Fh4oSJEzQr5x9BvD1a2XxRMRzPY0TwVwxHOO3kxaeecurAQL9hmEQErtmiq71yIzQhanudPzzxh+tvuOmXv360byDFAJQCqcCRYDvk2OQ4OhQAIwJFcPjI4e/9x39+4IMffO2111OplHvcrqPioXYGZ5yLiBk5eODAs888++Uvf/mqq961dcsmPtqI4EjAQFsfFeg6H8Mjc8U1AV6BZ5x+8sKF8w1DcMYL3Rp8h4z19Pb95pHfXnHle77z3e9v2bqTlLQckjIYVs7QEPxob99jj//+uus+cP/9v8ikLYacPKVwzvstywZE23YaGxvfedmliVg0vO0jom1Lx5EI6Jtl+TgOu/a3abIfY4wYw1tuuXnjxg2pVEZKVVTURlRSxePxNWtWf/jDH160ePGFF1w4e2ZnXXVFNBolhgzRcaRlO/39g1u3bnvmmWefffbZQ4cOlsXLhCHAj7KXB9t2ECmRSIwfN+6qq66cNHGCLZUoPnERXYelzs6Otra2N99cxYTB2MhsNUipqpraadOmsSE9EyKRyJw5s3/3xO+kkggjewXnjJRcvGhxsqzM4/eJxjrzQxaOVxjOZUNy4AUjxo997B/fePON/fu7GIFChQSAuZ2jlGKMVVSUb9+27Qtf/JeHHnlo6cUXL5g/r7w8mSyLc6/bLcvu7xvYsX3X6ytff+K/n9y6bRsX3NBJYItgYGBACGGYhtWX/tCHPtjR2fHWKAHYmFtBlCfLP/ihD67fsKHnaJ/e7/2wk3oDzbk/kUz09vR+81vfvO/eexctWDhv/rxJEyfFy1xRfdeePZs2bfr73/++fft2RSoajVqWxfMGwodSChGVcm746EfjZWW2I5EH+kQppWWlwc2XlluIyJkaPq1lBZRziG4qWQAvG81Ip3zOJlNkHLRrdihMYVFNIQDA7FkzL730soceelApyZkhpWQiNw+ODnCk3Mjp1rK/LVv+8vK6utqqysr6+npDCNM0M5lMKpXaum37wYMHU6kUIsbLyizLDoXVDRPdEGtDkElb17z3mnPPO095nGOhFvtfEQEYgnd2dqxavZppCzoscnd+5wAAwfhx4yaMHycQ/fOmkPLBrSfnrGlKY3Vl9aHubu6OvauPzn1d8MntcOU4pmGecfrp3I0MjqH4KGMPHCqUEHicJ/oc6dDcRLEfdLe0t0695ZZbvvKVr6TTljdVKPsWsCzbNMxUKs0YA6JXVry64tVXJ0+aVFlZWVVVXVaW5JwDwkB/357du/bt60pbliOdaDQmlfSqS+7xt1sJd+CIyHZsx7HPP/+CK664goLWDQcUqmO4eZR9h/vBDwaP4dEb7kzLe7ei+XPnXH7ZZb/8xa+VUoyh7UjGuSeP+VnB3ZloWRYXvLq65mhPz5+feebZ554zTTMajerS+vp7HccxzYhpmlJKxrhElb9s0Fv7gnMp5WWXXrZkyRJkjHO0HYcx4TjOtm3bXl2xYmBgwHGcyoqKmZ2zOjqm+2EfId91H4qrP5AAUQeUckM+5x+9HXNfylYuBXQyJAEHprsISitN/HEsOLvLk4l3v/tdW7ZsfmnZcoccx7EFAjIO4Ibl0MOrFAEgEejs6ES0f3/X7t17Vq9ZCwgCmbY0VkBKkTAM7TAADBUF85C8SvhOF0qq1GDq6qvfe/311ycScfJbVqzRXqxLAjj77LMffewxxpnjBKa/rBgpcXdNAgDGePOUprqamjD91xykCs16RJw4YfyECROPHu31NLpBXEcMry/fH0AF6rramupFCxcwb1XgW3bSmqVXyptDwejr7Jzh0A5FSyr8lW41EVx6ydJVq1Y99NBDgnMFoC0Hw2TJMEw98xQpIIhEo0R08OChgwe7AbZpn3xSoEgxJC2PmlwgouCeU0MomId/pqJ1FIzh/PnzPv3pT9XW1gxfYMXwzl1ETUreVuATTwRvxrrPeYGnfSZsKGTxF4qgprrq2qvfs2bVuuXLl8eTEcu2AbhW03kT2Ath47EE0lGRSMwvYTDlek8LYQph6GYhcseWiIFVWJBRyKNQmUyms7Pj4x+7tSIZJ0RJhAwR6LXXXnvyyT+0trbOnNlp29bWrdvvvfe+yy6/5JxzzvZrPoqJi6HreDB0ISNg5DnDqVOnXn/9R2pqaxhDcUwZUOtKGArBox4456RIp2AdQSMAHMdZsuTsL/zzZ+rHVQ9fkazfsXDhoqqqatuxR+q+Eo1GOzqmJ8vL5bGeq6kb39raUpR0ZiPsOe9IZ+7c2TXV5W9nBLGRx5EbDTiDqGl++APvXzh/AYBSToF85z4CJgAROGOCcyE417mwkTHOhGBCIGeI/Jjm5MgQGWtsbPzsZz7V3t4iiuffGDXeuuESgimipqYp//zPn6+tqRkcHPSMEGkkq8aNbUxualytWjx2P4wfN+7WW29taWr008ohYm9f//3333f++ee3t09bu279jh27zjrr7He/+9333Xv/xo2bwq8cFgJpjfzd1SXew21dNjz2zWPWRgstO8ci4uyzTvvSF/9FS4QUirlUDIpISuU40rZt27KVzPUTLlzt7HsYY2eedebX77g9Ek1m7BGH+KyrrZg+bZpjO8N/RL8jmUy2T5vG+LHJV0Uy0dTUREQ5fspDO8YTkW1Zc+fOUyMRqMYKb+kLdbtNQzQ3N3/2s5+ZNHEi6dU2pB5Y68Ud27EydiaT0dwfF5xxN1oi5WaHK2z7S0S1tTVf/vKXOmfOGube4xZXqG75vuc+44BZfxUqcLhvDonDBIwhY6xzZsfP7v3ZpIkTU6kBRMXc4+bCTx0/iJRhGFddddVpp51KmHX8ce+9P2ttba2tqfnWt7616s03n3v++W9/+9/G1487/fQzvvnNb/m3sdCxba4sEA6lC6AjoYKWwFlWf45gtAq47hPow+/wu4p4NWQhvG8yAA5w8UUX3vnNOxonT7asNCknYhjoBSIOQwfs12m0vMwQgpi+OKLnru2WyrMUV0SW5W7+mUzmlJNP+dQnP9HY0BiNGiLU/TkW/CwvmKF/28L5CwwuBLJ8v+t8aAtMIkokE60tLSxkExPuCm+7BEYgOGtvaYlHY2FKF2gn/JIJMbQsCVRFZUV7eys/ztShI4erCAzFRRsj6QEge84gwty5s+/4+h319fWpwQFUDpAMWYTp2ciQmBsCGLzEIJwTIBAj7TzsziVQhEqf3CoMBeUEAFCKLMsiopapLXd8/WunnHJy1DR8yXFo+aggf8hIMVIAinkk1s864k+GgiwMC7HMLFhow6JKrtcHR8Fp9uwZX/rSF9raWgRHLpABKJL6Ap2tTOqYKPlXMfjTnwAUoJLK5gI1N/Lu91z1/uuuSZTFdKw9f1m98sqKRQsXAeKE8RM+dtvHP/+Zz1VXVu/etffcc8+tqqrxix7OSWuYnPmqvOOn1hja8cJDnFXySJXel156SVlZ4q677tq0ZQvpZMtax0thxV7A9LrT2o9Rg/7ZkQYD0norTzenCAAcx64sT77zne+84aMfmdo8ZWQLMGSsxhHmzptjmMLKOJ6pCgIUtXRijAmDD/QfndY+ra6upvBNeWhpaZ4ypWHt+vXe8BWsLnpmyS6TPmVKY2tr89vOyRUEep3mL88xKRQRaNGiBT/8r+/fddd3XnjxBWSc8Vx3VwDwXOgYeqqv8IZAYcbNX6fulHO5CO0dfN55593w0RtmzpyBCMhGanKaMxS5Zyb+rAn/gOH7w9kbfHezYEUfO6qI3ytExBmcd86ZsVjkv35w90vLXxLCDEp3g+R6r3ClvwKnC169MXgwG9KRiWTZtddee/2HPlBRWU5eWIog2q1SNbW1kUjUsjP3/PieI0ePzJk9t21aa8SMCCPQXOXQ/fD7wtXyR8/nuIqcU4wYOTQUwzwN+kHUhgECYBxNg517zpl33fXtCy64sL+/P51Ju7+FXhGE4SUGxIF46CcMMXHcPf8g7tUKhRCMscmTJ33ta1/73Oc+21SQxh0jVl/wqwJoapw4rm4cke9YjNm7e/BqABTCIILBVGrenDnRaOQYHeN1bVNzY0PjJHfscgcOvWhYLOgQQABobWlLJMsVgPxfDO/v+vkyt1s0Aw75hmKjAXpBeDtmzPj6126/8aYbo9GIciSyLF2/x5KEnb6yp2uQpDmfLXM/1NXV3nrbrZ/97Gfnzuk0BBOCpdPpEeo4CvN8vrloeGgLrc+cdwWHIgB6TioC8vxMj1EzAmAMCPHUU0/6xh1fvfaaazhH5vWUN9O8OlO4djlzD7N6j4K1L7jgnE+cNOn222+/5caPlCUSAAUCwNXV1W3evCmTSWWszOX/cPlgaqChcXJ1Tc36jev37tsX9FLoQ3iTdHPs+pHgGEhEB9BRTkY5lpQy9MJAZvKDmhXrIP81CNrSnYh8Xl9LlORLmsELfEvZ4ryvTy9NQ8yZ1XHXnd/63ve+O3nixIG+fq9kBsRIoXRIOqQkKOWlX6XQaleMHCAJ+mYlAYFbaYcUZTIZx7YvueiiH/3whxe+47yamnKDA/PrxrxFSZC/N2JIkvVGGAigpqp6zqzZoMDkpslNwQQyP2RmFqvPgBwrI20rFjFmdk73TzuCqZE/lzy5qLOzI50ZdGw71d9vWxnLStuWZVu2nXH0ZVmOZTmZjG3ZFgBwxmfM6KioqFBKM7f0lkejyV1Y/qoJ8k2SIqbF9lxN0Gjqpr3uBAPT4BMnTfrMJz/1n//+H/X19U7aihgRUkAKBTcZC6coLDAuXjZqBSQZAANMpweRgSIJStrpzIK5c370w+9/4uO3TG2e7MeWi0aiyNw9z5/VecsGGTHpKMeRyrtAKpDB6uCGAAaOR5jC9JUFH0FKKaWlHEs5tnKkcmySNoGO+2kLBkiknOC038voozp+TewAAAvkSURBVG3C3cuvpBBcAhkG58Jontp8x9e+8uCvfjW+tjaTSnnijoMMGENdTHjyM1JM6088YZ8IlHRzvqACBoCKDh85dPLJi//937+zdOkF0XhMCL0EPC2Sl630vPPP+ctfnuGcTZgwoa2t7Utf+vJzzz+3dcumxx79zZw5c/w5VUBo1VEbEAhQ+dYH6P6nk7vQGM14bamhWTblSY6eRRcCwMiMUbVBpC4lmYxefvnFp512yt0/uufpp/+8r+uAY1uMcc4554KIEBkR5qhOGUMEpv9LZ1JAZJomIkQiZlkiNmPG9A9/8Lozzjg1YnLdIwoAcPSshaMgGo22t7WZppBKoqtgIY+RzQKCQoYIOK21dfbs2cN9BwHnfPHihUrZhllmRoQtlTtdKX9xESrFOU+Wl7W0TjEMgYzyUhG8lUAtTLryIblJlAj02QspAA4AfvQtBZAdh2M0Q6EnAwCcceYZ//M///3znz/whyee3LFzpyNJkRJCWFaxeFnBlkIkNbfBGYtGowAykSib3t5+1ZVXXHzx0kRZZHRVA3c9hloXEt8RwbKsTMbKpNNKKV4gVYULz7tDh5tViOC53mj5DAkcRQ6Bq58Z5sETQ1KEinD+/Dm/efThhx965M9/fnbNunVCCKUcQhWKGZrbLvCWvGNbkpTggjFCUhHTnDxp0nvec9UVV15RWXGM9OdLL3zH8peXP/PMM7fddhvjrLqm+pZbb3n66aeP9vZ8/Rt3+LcVIHNccCGEMBh6Zq5hRpkRScWEcfz6EQVAQjBtjaVcA1nNGBEAAyRt9zyi6cH8qUfAgGprKj/96U/+n3+4/IVly/724ss7duzsPtxtWbbt2EoqRC4CLwIEACJIZ1L6b9M0lKJYLNLSMnX+gvmnnrJo9uw51dXlUipH6YwNBRs1AnAENM2ZszpqaqoOHepG5IjAdZ6toHDUGg4EhkjpdOq0006JxaLDfQeC4Gz69PaW1qn793VxbgjwTptc42vM0iwpRIaVlRUTJkzwahGeo+FQVWMKb90KwZARutGMgqmHCKBQCGFGTENwAJ/N9BEoFodP73zpgwhMgzMeu/nGj7zjwguWv/LKspeWv/rqq5m0ZVn94AegD94FgEC+IIXKtjKRSFQYvHlqU8eM6eeee87CBQsqKyuippHlPTK8YFLe7YoLhu5CZF6N3f7SdTcMQ3tlkF8xPZK6BxERUAghDI5MAQLnGHAXAICKI5qmMAx+rNVGef8ynbhdEdSPr/3YP978josufOWVV17427J169Yd7u623WhJgX2GL3fpVwMgF2AwEY1Ek8my2bNnn3H6aYsWL5rRPtWhvA02r+tM07z55pt//eCvf/Kzn8TiMSLIZDJl8fgnPvUJFjrJRpknhv/tby/v6zrAmZ5k2efkLnMnJ0yYMG/O3Gg0QnmJ0oYDBdDf17/spZcHBgeIXLMIPyeLxzYSAUyeNHHWrM5IJOK/P3hVvk4z9IsOMaI008JRKjrQdXDP7t3rN21a9ebqPXv3de3vOtrTkxpMpdPpTMYyPJvpaDRaVVVdV1fX2tbaOnXq9Gnt9fUTJk6ckCiLERJjWkUNWOgIknlcRmg43CpnRRny+p8B2IqOHjny6muv9/b2IDIknf2EZR17ok4Xr5AxAOqc0dnSMlXbRmqb7azeyO4T7YiasayXl7/U3d1NhCxLc+CuBx8cOTd4ZUXZnDmzk8kyTWELkbSxN/iypdq9e9eateukVDpthuY4yM1kCUBgGgaRvXjRwgn140JLPwcjIHNh+KtQERBR95Gju3bt2r1776rVa3fs2Llnz+59e/am05l0OqWUawOEDKPxaE11TXl5cuLkie3tba2tra0trQ2TJldUlAOQVIohskJdmKvAC9UBABSBbTurVq3au3cvgSKXwwr2fU2cHUdFI5EFCxfUVFchAy9wA/q94ChavXrVps1bGOPg2uIiuAlEtfceccaS5WXz5s6rrKrS9oDeNqsAIH+mhwOsep+Y9otQRAxw3/4D+/fvX7NmzbZtO7Zv275v/77D3YfS6XQ6nc54hlfCEOXJ8qrq6tqa2unTZixavKiurqq5uam6upqIDFMAuSxP/lj65I8BKKKe3t4dO3d2d3czhrW1tY2NU+LxGA97L4XJnO6XYjlB/FZpBs8V27LSDQ4XOvqwN4eD4cbw2vY2q5zmDYfMgRb4vcDQej2kUqlIJKIcsixLSdmfTvX29Pf196VSKSujE4YDAIwbPy6RSJQnEhHD5MLQ0QA45xwBUScK1S8tsCcPQeYgROkof8/MC5pVSIVMnlcp6BgnrtUFBm75WT0FAADSk/jIt5bISn3ifvZ3M+b5jACStnbGQhP9rSBzCkCRIkUhva/W3SiPeQKG2jI36J4xJHMFqwREVsbKWJbt2Hv2dKXTmXR60HFsTSyQYTwRr6mpKU8mTNM0jYhpGKiPSbL8fzHfh2ToHpSumQC5sZ21Ux/5qSN0z+i+IcaQMe0lEpC5cPlDL2oJUmcN9uzq2fDJnA/KHjUAVI7j2Hbasvv7+w8d6k6lUul02quIEkJUVFTU1tbE4/FYJBKNRhkbbgAaX2hjfi2L3KaRy825C4G8ZzFbdYUsx8GLVJ653TCgsjrFL+vYAupwyRyBZ7CpwJNudN570loeQETGvcmnAMjrKy9YCCK4flfhdV645h5GTeaIXFOVMJRHbvQJANN7AjL03JuHT+YQsEgONK8C7kOIQW+QX9LbReYUASmlXGtdQATuuXYFXaZ5V/V2kTkFoMilLgx04hXvKBKBUDHUAUe1Jl0pUryAHRQLqSFY8ZpnvRq8gfAUlATAXDdLT33mDyoGMzSXzCly+VNNmgGlZ0qlabFLJAl8Gfw4yZx3m5KkkDOu1V+kdBX0EbeyHZshCmFwRAWgpCQApsNdHQthMjcEZQzIXH4IIMr66M/1MHkhCDQ6IX+5YcMr1z/KcPUexRSfWPDzkNwcAKiAxrnjh14wa33Mq7wvEUCScj0MtL0JYwJ5fn0obziz6kaU92WB+kIeiwrFhypoDQAAhWOwIABQITKH4cf8NoUzIlHOfS7zDIHK0dN8ERQW0MeGjoRBLrUPzAbQzTuA2QOR1Yoic+a4qhd+QcAdhQQlyrqZJCgE8iiFDnniL4tcay0MPhy7Dm4qq9D7NAGlQoNCwXOB0BoUFSQsJwzdjMGNPplDb45SwXoWnKtBRvns35lrUuG1mxAgrJ9SBBBmnoZYCOGZH57BOdM69Grv/nzjnbARod8Rb5nLj34bG5pZPR7OQYEqNFJj1pwx4RyGwasHv+dFsx5W9+QN6zEq7v2shv+K48cwZRbw7bMCwWUsMYSAp7ul0A05OgcCAG9PzWrXyKsbsALDqWEYw3jX2I+vCioc5kSOd5UMp4icbvFbNbQXxJgx/8XxNqyft2mJvsUozNGOtqi3elj/P0QOhz6GPfyWTuC3ovBcBvZ/HScGCSihhBJKKIoCQmsJJZRQwomEEjdXQgklnOAokbkSSijhBEeJzJVQQgknOEpkroQSSjjBUSJzJZRQwgmOEpkroYQSTnCUyFwJJZRwgqNE5koooYQTHCUyV0IJJZzgKJG5Ekoo4QRHicyVUEIJJzhKZK6EEko4wVEicyWUUMIJjhKZK6GEEk5wlMhcCSWUcIKjROZKKKGEExwlMldCCSWc4CiRuRJKKOEER4nMlVBCCSc4SmSuhBJKOMFRInMllFDCCY4SmSuhhBJOcJTIXAkllHCCo0TmSiihhBMcJTJXQgklnOAokbkSSijhBEeJzJVQQgknOEpkroQSSjjBUSJzJZRQwgmOEpkroYQSTnCUyFwJJZRwgqNE5koooYQTHCUyV0IJJZzgKJG5Ekoo4QRHicyVUEIJJzhKZK6EEko4wVEicyWUUMIJjhKZK6GEEk5wlMhcCSWUcIKjROZKKKGEExwlMldCCSX833bqQAYAAABgkL/1Pb6CaE5zwJzmgDnNAXOaA+Y0B8xpDpjTHDCnOWBOc8Cc5oA5zQFzmgPmNAfMaQ6Y0xwwpzlgTnPAnOaAOc0Bc5oD5jQHzGkOmNMcMKc5YC527fONukx7XQAAAABJRU5ErkJggg==;" vertex="1" parent="Cr8tvd9zCxj87-AZz5cW-2">
          <mxGeometry x="887.33" y="130" width="73.33" height="60" as="geometry" />
        </mxCell>
        <mxCell id="lQ-txgPadyU6qg3tsw2Z-1" value="" style="sketch=0;points=[[0,0,0],[0.25,0,0],[0.5,0,0],[0.75,0,0],[1,0,0],[0,1,0],[0.25,1,0],[0.5,1,0],[0.75,1,0],[1,1,0],[0,0.25,0],[0,0.5,0],[0,0.75,0],[1,0.25,0],[1,0.5,0],[1,0.75,0]];points=[[0,0,0],[0.25,0,0],[0.5,0,0],[0.75,0,0],[1,0,0],[0,1,0],[0.25,1,0],[0.5,1,0],[0.75,1,0],[1,1,0],[0,0.25,0],[0,0.5,0],[0,0.75,0],[1,0.25,0],[1,0.5,0],[1,0.75,0]];outlineConnect=0;fontColor=#232F3E;fillColor=#E7157B;strokeColor=#ffffff;dashed=0;verticalLabelPosition=bottom;verticalAlign=top;align=center;html=1;fontSize=12;fontStyle=0;aspect=fixed;shape=mxgraph.aws4.resourceIcon;resIcon=mxgraph.aws4.cloudtrail;" vertex="1" parent="Cr8tvd9zCxj87-AZz5cW-2">
          <mxGeometry x="888" y="570" width="69" height="69" as="geometry" />
        </mxCell>
        <mxCell id="lQ-txgPadyU6qg3tsw2Z-2" value="&lt;b&gt;CloudTrail&lt;/b&gt;" style="text;strokeColor=none;align=center;fillColor=none;html=1;verticalAlign=middle;whiteSpace=wrap;rounded=0;" vertex="1" parent="Cr8tvd9zCxj87-AZz5cW-2">
          <mxGeometry x="884" y="639" width="76" height="20" as="geometry" />
        </mxCell>
        <mxCell id="lQ-txgPadyU6qg3tsw2Z-4" value="" style="shape=image;verticalLabelPosition=bottom;labelBackgroundColor=default;verticalAlign=top;aspect=fixed;imageAspect=0;image=https://a.b.cdn.console.awsstatic.com/a/v1/KZ7QC3JXOJM5P2GEPPKJ2S6GIDJBWB6MSHBBQ3FYRS2BB2TXWN4A/icon/011134986548f3458aa3e7e2a7fceb8d-61e2ad36eb2acba35da09e890ced6904.svg;" vertex="1" parent="Cr8tvd9zCxj87-AZz5cW-2">
          <mxGeometry x="889" y="670" width="70" height="70" as="geometry" />
        </mxCell>
        <mxCell id="lQ-txgPadyU6qg3tsw2Z-5" value="&lt;b&gt;AWS Config&lt;/b&gt;" style="text;strokeColor=none;align=center;fillColor=none;html=1;verticalAlign=middle;whiteSpace=wrap;rounded=0;" vertex="1" parent="Cr8tvd9zCxj87-AZz5cW-2">
          <mxGeometry x="885.4999999999999" y="740" width="76" height="20" as="geometry" />
        </mxCell>
        <mxCell id="Cr8tvd9zCxj87-AZz5cW-4" value="&lt;font color=&quot;#6666ff&quot;&gt;VPC 10.0.0.0/16&lt;/font&gt;" style="points=[[0,0],[0.25,0],[0.5,0],[0.75,0],[1,0],[1,0.25],[1,0.5],[1,0.75],[1,1],[0.75,1],[0.5,1],[0.25,1],[0,1],[0,0.75],[0,0.5],[0,0.25]];outlineConnect=0;gradientColor=none;html=1;whiteSpace=wrap;fontSize=12;fontStyle=0;container=1;pointerEvents=0;collapsible=0;recursiveResize=0;shape=mxgraph.aws4.group;grIcon=mxgraph.aws4.group_vpc2;strokeColor=#8C4FFF;fillColor=none;verticalAlign=top;align=left;spacingLeft=30;fontColor=#AAB7B8;dashed=0;" vertex="1" parent="Cr8tvd9zCxj87-AZz5cW-2">
          <mxGeometry x="29.5" y="40" width="840.5" height="714" as="geometry" />
        </mxCell>
        <mxCell id="Cr8tvd9zCxj87-AZz5cW-24" style="rounded=0;orthogonalLoop=1;jettySize=auto;html=1;flowAnimation=1;entryX=0;entryY=0.5;entryDx=0;entryDy=0;edgeStyle=orthogonalEdgeStyle;entryPerimeter=0;" edge="1" parent="Cr8tvd9zCxj87-AZz5cW-4">
          <mxGeometry relative="1" as="geometry">
            <mxPoint x="410.5" y="154.82000000000005" as="sourcePoint" />
            <mxPoint x="701.5" y="154.82000000000005" as="targetPoint" />
          </mxGeometry>
        </mxCell>
        <mxCell id="hgdbOCuSvj7pBk63r5Fd-24" style="edgeStyle=orthogonalEdgeStyle;rounded=0;orthogonalLoop=1;jettySize=auto;html=1;flowAnimation=1;exitX=0.855;exitY=0.855;exitDx=0;exitDy=0;exitPerimeter=0;" edge="1" parent="Cr8tvd9zCxj87-AZz5cW-4">
          <mxGeometry relative="1" as="geometry">
            <mxPoint x="80.5" y="253.75" as="sourcePoint" />
            <mxPoint x="250.5" y="611" as="targetPoint" />
            <Array as="points">
              <mxPoint x="81" y="241" />
              <mxPoint x="85" y="241" />
              <mxPoint x="85" y="590" />
              <mxPoint x="251" y="590" />
            </Array>
          </mxGeometry>
        </mxCell>
        <mxCell id="hgdbOCuSvj7pBk63r5Fd-35" style="rounded=0;orthogonalLoop=1;jettySize=auto;html=1;flowAnimation=1;edgeStyle=orthogonalEdgeStyle;" edge="1" parent="Cr8tvd9zCxj87-AZz5cW-4">
          <mxGeometry relative="1" as="geometry">
            <mxPoint x="340.5" y="820" as="sourcePoint" />
            <mxPoint x="260.5" y="220" as="targetPoint" />
            <Array as="points">
              <mxPoint x="250.5" y="820" />
              <mxPoint x="250.5" y="220" />
            </Array>
          </mxGeometry>
        </mxCell>
        <mxCell id="hgdbOCuSvj7pBk63r5Fd-33" style="rounded=0;orthogonalLoop=1;jettySize=auto;html=1;flowAnimation=1;edgeStyle=orthogonalEdgeStyle;exitX=1;exitY=0.5;exitDx=0;exitDy=0;exitPerimeter=0;" edge="1" parent="Cr8tvd9zCxj87-AZz5cW-4" source="nhQEJnRORRV5ByxXWJ2r-5">
          <mxGeometry relative="1" as="geometry">
            <mxPoint x="460.5" y="813.75" as="sourcePoint" />
            <mxPoint x="496.5" y="203.75" as="targetPoint" />
          </mxGeometry>
        </mxCell>
        <mxCell id="Cr8tvd9zCxj87-AZz5cW-18" value="Sub-rede privada" style="points=[[0,0],[0.25,0],[0.5,0],[0.75,0],[1,0],[1,0.25],[1,0.5],[1,0.75],[1,1],[0.75,1],[0.5,1],[0.25,1],[0,1],[0,0.75],[0,0.5],[0,0.25]];outlineConnect=0;gradientColor=none;html=1;whiteSpace=wrap;fontSize=12;fontStyle=0;container=1;pointerEvents=0;collapsible=0;recursiveResize=0;shape=mxgraph.aws4.group;grIcon=mxgraph.aws4.group_security_group;grStroke=0;strokeColor=#7AA116;fillColor=#F2F6E8;verticalAlign=top;align=left;spacingLeft=30;fontColor=#248814;dashed=0;" vertex="1" parent="Cr8tvd9zCxj87-AZz5cW-4">
          <mxGeometry x="380.5" y="499" width="132" height="150" as="geometry" />
        </mxCell>
        <mxCell id="GUhW-B6BBazeU2E1Dap--13" value="Sub-rede pública" style="points=[[0,0],[0.25,0],[0.5,0],[0.75,0],[1,0],[1,0.25],[1,0.5],[1,0.75],[1,1],[0.75,1],[0.5,1],[0.25,1],[0,1],[0,0.75],[0,0.5],[0,0.25]];outlineConnect=0;gradientColor=none;html=1;whiteSpace=wrap;fontSize=12;fontStyle=0;container=1;pointerEvents=0;collapsible=0;recursiveResize=0;shape=mxgraph.aws4.group;grIcon=mxgraph.aws4.group_security_group;grStroke=0;strokeColor=#7AA116;fillColor=#F2F6E8;verticalAlign=top;align=left;spacingLeft=30;fontColor=#248814;dashed=0;" vertex="1" parent="Cr8tvd9zCxj87-AZz5cW-4">
          <mxGeometry x="240.5" y="301.5" width="132" height="150" as="geometry" />
        </mxCell>
        <mxCell id="GUhW-B6BBazeU2E1Dap--14" value="Servidor de web" style="sketch=0;points=[[0,0,0],[0.25,0,0],[0.5,0,0],[0.75,0,0],[1,0,0],[0,1,0],[0.25,1,0],[0.5,1,0],[0.75,1,0],[1,1,0],[0,0.25,0],[0,0.5,0],[0,0.75,0],[1,0.25,0],[1,0.5,0],[1,0.75,0]];outlineConnect=0;fontColor=#232F3E;fillColor=#ED7100;strokeColor=#ffffff;dashed=0;verticalLabelPosition=bottom;verticalAlign=top;align=center;html=1;fontSize=12;fontStyle=0;aspect=fixed;shape=mxgraph.aws4.resourceIcon;resIcon=mxgraph.aws4.ec2;" vertex="1" parent="GUhW-B6BBazeU2E1Dap--13">
          <mxGeometry x="36" y="45.5" width="60" height="60" as="geometry" />
        </mxCell>
        <mxCell id="Cr8tvd9zCxj87-AZz5cW-21" value="EC2" style="sketch=0;points=[[0,0,0],[0.25,0,0],[0.5,0,0],[0.75,0,0],[1,0,0],[0,1,0],[0.25,1,0],[0.5,1,0],[0.75,1,0],[1,1,0],[0,0.25,0],[0,0.5,0],[0,0.75,0],[1,0.25,0],[1,0.5,0],[1,0.75,0]];outlineConnect=0;fontColor=#232F3E;fillColor=#ED7100;strokeColor=#ffffff;dashed=0;verticalLabelPosition=bottom;verticalAlign=top;align=center;html=1;fontSize=12;fontStyle=0;aspect=fixed;shape=mxgraph.aws4.resourceIcon;resIcon=mxgraph.aws4.ec2;" vertex="1" parent="Cr8tvd9zCxj87-AZz5cW-4">
          <mxGeometry x="420.5" y="346.5" width="60" height="60" as="geometry" />
        </mxCell>
        <mxCell id="GUhW-B6BBazeU2E1Dap--19" value="Sub-rede pública" style="points=[[0,0],[0.25,0],[0.5,0],[0.75,0],[1,0],[1,0.25],[1,0.5],[1,0.75],[1,1],[0.75,1],[0.5,1],[0.25,1],[0,1],[0,0.75],[0,0.5],[0,0.25]];outlineConnect=0;gradientColor=none;html=1;whiteSpace=wrap;fontSize=12;fontStyle=0;container=1;pointerEvents=0;collapsible=0;recursiveResize=0;shape=mxgraph.aws4.group;grIcon=mxgraph.aws4.group_security_group;grStroke=0;strokeColor=#7AA116;fillColor=#F2F6E8;verticalAlign=top;align=left;spacingLeft=30;fontColor=#248814;dashed=0;" vertex="1" parent="Cr8tvd9zCxj87-AZz5cW-4">
          <mxGeometry x="240.5" y="499" width="132" height="150" as="geometry" />
        </mxCell>
        <mxCell id="GUhW-B6BBazeU2E1Dap--20" value="Servidor de web" style="sketch=0;points=[[0,0,0],[0.25,0,0],[0.5,0,0],[0.75,0,0],[1,0,0],[0,1,0],[0.25,1,0],[0.5,1,0],[0.75,1,0],[1,1,0],[0,0.25,0],[0,0.5,0],[0,0.75,0],[1,0.25,0],[1,0.5,0],[1,0.75,0]];outlineConnect=0;fontColor=#232F3E;fillColor=#ED7100;strokeColor=#ffffff;dashed=0;verticalLabelPosition=bottom;verticalAlign=top;align=center;html=1;fontSize=12;fontStyle=0;aspect=fixed;shape=mxgraph.aws4.resourceIcon;resIcon=mxgraph.aws4.ec2;" vertex="1" parent="GUhW-B6BBazeU2E1Dap--19">
          <mxGeometry x="36" y="45.5" width="60" height="60" as="geometry" />
        </mxCell>
        <mxCell id="Cr8tvd9zCxj87-AZz5cW-26" value="Auto Scaling group" style="points=[[0,0],[0.25,0],[0.5,0],[0.75,0],[1,0],[1,0.25],[1,0.5],[1,0.75],[1,1],[0.75,1],[0.5,1],[0.25,1],[0,1],[0,0.75],[0,0.5],[0,0.25]];outlineConnect=0;gradientColor=none;html=1;whiteSpace=wrap;fontSize=12;fontStyle=0;container=1;pointerEvents=0;collapsible=0;recursiveResize=0;shape=mxgraph.aws4.groupCenter;grIcon=mxgraph.aws4.group_auto_scaling_group;grStroke=1;strokeColor=#D86613;fillColor=none;verticalAlign=top;align=center;fontColor=#D86613;dashed=1;spacingTop=25;" vertex="1" parent="Cr8tvd9zCxj87-AZz5cW-4">
          <mxGeometry x="220.5" y="10" width="309.5" height="680" as="geometry" />
        </mxCell>
        <mxCell id="c7LU-c8q0nOlSC5T02CA-10" style="rounded=0;orthogonalLoop=1;jettySize=auto;html=1;flowAnimation=1;entryX=0;entryY=0.5;entryDx=0;entryDy=0;edgeStyle=orthogonalEdgeStyle;entryPerimeter=0;" edge="1" parent="Cr8tvd9zCxj87-AZz5cW-26">
          <mxGeometry relative="1" as="geometry">
            <mxPoint x="180" y="569.4100000000001" as="sourcePoint" />
            <mxPoint x="471" y="569.4100000000001" as="targetPoint" />
          </mxGeometry>
        </mxCell>
        <mxCell id="c7LU-c8q0nOlSC5T02CA-7" style="rounded=0;orthogonalLoop=1;jettySize=auto;html=1;flowAnimation=1;entryX=0;entryY=0.5;entryDx=0;entryDy=0;edgeStyle=orthogonalEdgeStyle;entryPerimeter=0;" edge="1" parent="Cr8tvd9zCxj87-AZz5cW-26">
          <mxGeometry relative="1" as="geometry">
            <mxPoint x="200" y="359.4100000000001" as="sourcePoint" />
            <mxPoint x="491" y="359.4100000000001" as="targetPoint" />
          </mxGeometry>
        </mxCell>
        <mxCell id="GUhW-B6BBazeU2E1Dap--23" value="EC2" style="sketch=0;points=[[0,0,0],[0.25,0,0],[0.5,0,0],[0.75,0,0],[1,0,0],[0,1,0],[0.25,1,0],[0.5,1,0],[0.75,1,0],[1,1,0],[0,0.25,0],[0,0.5,0],[0,0.75,0],[1,0.25,0],[1,0.5,0],[1,0.75,0]];outlineConnect=0;fontColor=#232F3E;fillColor=#ED7100;strokeColor=#ffffff;dashed=0;verticalLabelPosition=bottom;verticalAlign=top;align=center;html=1;fontSize=12;fontStyle=0;aspect=fixed;shape=mxgraph.aws4.resourceIcon;resIcon=mxgraph.aws4.ec2;" vertex="1" parent="Cr8tvd9zCxj87-AZz5cW-26">
          <mxGeometry x="200" y="534.5" width="60" height="60" as="geometry" />
        </mxCell>
        <mxCell id="Cr8tvd9zCxj87-AZz5cW-3" value="Sub-rede privada" style="points=[[0,0],[0.25,0],[0.5,0],[0.75,0],[1,0],[1,0.25],[1,0.5],[1,0.75],[1,1],[0.75,1],[0.5,1],[0.25,1],[0,1],[0,0.75],[0,0.5],[0,0.25]];outlineConnect=0;gradientColor=none;html=1;whiteSpace=wrap;fontSize=12;fontStyle=0;container=1;pointerEvents=0;collapsible=0;recursiveResize=0;shape=mxgraph.aws4.group;grIcon=mxgraph.aws4.group_security_group;grStroke=0;strokeColor=#7AA116;fillColor=#F2F6E8;verticalAlign=top;align=left;spacingLeft=30;fontColor=#248814;dashed=0;" vertex="1" parent="Cr8tvd9zCxj87-AZz5cW-26">
          <mxGeometry x="159" y="292.25" width="132" height="148.5" as="geometry" />
        </mxCell>
        <mxCell id="hgdbOCuSvj7pBk63r5Fd-7" value="Sub-rede privada" style="points=[[0,0],[0.25,0],[0.5,0],[0.75,0],[1,0],[1,0.25],[1,0.5],[1,0.75],[1,1],[0.75,1],[0.5,1],[0.25,1],[0,1],[0,0.75],[0,0.5],[0,0.25]];outlineConnect=0;gradientColor=none;html=1;whiteSpace=wrap;fontSize=12;fontStyle=0;container=1;pointerEvents=0;collapsible=0;recursiveResize=0;shape=mxgraph.aws4.group;grIcon=mxgraph.aws4.group_security_group;grStroke=0;strokeColor=#7AA116;fillColor=#F2F6E8;verticalAlign=top;align=left;spacingLeft=30;fontColor=#248814;dashed=0;" vertex="1" parent="Cr8tvd9zCxj87-AZz5cW-26">
          <mxGeometry x="160" y="75.5" width="128.5" height="150" as="geometry" />
        </mxCell>
        <mxCell id="hgdbOCuSvj7pBk63r5Fd-8" value="EC2" style="sketch=0;points=[[0,0,0],[0.25,0,0],[0.5,0,0],[0.75,0,0],[1,0,0],[0,1,0],[0.25,1,0],[0.5,1,0],[0.75,1,0],[1,1,0],[0,0.25,0],[0,0.5,0],[0,0.75,0],[1,0.25,0],[1,0.5,0],[1,0.75,0]];outlineConnect=0;fontColor=#232F3E;fillColor=#ED7100;strokeColor=#ffffff;dashed=0;verticalLabelPosition=bottom;verticalAlign=top;align=center;html=1;fontSize=12;fontStyle=0;aspect=fixed;shape=mxgraph.aws4.resourceIcon;resIcon=mxgraph.aws4.ec2;" vertex="1" parent="hgdbOCuSvj7pBk63r5Fd-7">
          <mxGeometry x="36" y="45" width="60" height="60" as="geometry" />
        </mxCell>
        <mxCell id="hgdbOCuSvj7pBk63r5Fd-5" value="Sub-rede pública" style="points=[[0,0],[0.25,0],[0.5,0],[0.75,0],[1,0],[1,0.25],[1,0.5],[1,0.75],[1,1],[0.75,1],[0.5,1],[0.25,1],[0,1],[0,0.75],[0,0.5],[0,0.25]];outlineConnect=0;gradientColor=none;html=1;whiteSpace=wrap;fontSize=12;fontStyle=0;container=1;pointerEvents=0;collapsible=0;recursiveResize=0;shape=mxgraph.aws4.group;grIcon=mxgraph.aws4.group_security_group;grStroke=0;strokeColor=#7AA116;fillColor=#F2F6E8;verticalAlign=top;align=left;spacingLeft=30;fontColor=#248814;dashed=0;" vertex="1" parent="Cr8tvd9zCxj87-AZz5cW-26">
          <mxGeometry x="20" y="75.5" width="130" height="150" as="geometry" />
        </mxCell>
        <mxCell id="hgdbOCuSvj7pBk63r5Fd-6" value="Servidor de web" style="sketch=0;points=[[0,0,0],[0.25,0,0],[0.5,0,0],[0.75,0,0],[1,0,0],[0,1,0],[0.25,1,0],[0.5,1,0],[0.75,1,0],[1,1,0],[0,0.25,0],[0,0.5,0],[0,0.75,0],[1,0.25,0],[1,0.5,0],[1,0.75,0]];outlineConnect=0;fontColor=#232F3E;fillColor=#ED7100;strokeColor=#ffffff;dashed=0;verticalLabelPosition=bottom;verticalAlign=top;align=center;html=1;fontSize=12;fontStyle=0;aspect=fixed;shape=mxgraph.aws4.resourceIcon;resIcon=mxgraph.aws4.ec2;" vertex="1" parent="hgdbOCuSvj7pBk63r5Fd-5">
          <mxGeometry x="36" y="45" width="60" height="60" as="geometry" />
        </mxCell>
        <mxCell id="Cr8tvd9zCxj87-AZz5cW-17" value="&amp;nbsp; AZ-2" style="sketch=0;outlineConnect=0;gradientColor=none;html=1;whiteSpace=wrap;fontSize=12;fontStyle=0;shape=mxgraph.aws4.group;grIcon=mxgraph.aws4.group_availability_zone;strokeColor=#545B64;fillColor=none;verticalAlign=top;align=left;spacingLeft=30;fontColor=#545B64;dashed=1;" vertex="1" parent="Cr8tvd9zCxj87-AZz5cW-26">
          <mxGeometry x="-120" y="270" width="641" height="180" as="geometry" />
        </mxCell>
        <mxCell id="GUhW-B6BBazeU2E1Dap--3" value="&amp;nbsp; AZ-3" style="sketch=0;outlineConnect=0;gradientColor=none;html=1;whiteSpace=wrap;fontSize=12;fontStyle=0;shape=mxgraph.aws4.group;grIcon=mxgraph.aws4.group_availability_zone;strokeColor=#545B64;fillColor=none;verticalAlign=top;align=left;spacingLeft=30;fontColor=#545B64;dashed=1;" vertex="1" parent="Cr8tvd9zCxj87-AZz5cW-26">
          <mxGeometry x="-120" y="480" width="641" height="180" as="geometry" />
        </mxCell>
        <mxCell id="BFTg23CSuujXEkgAsUrE-3" value="" style="sketch=0;points=[[0,0,0],[0.25,0,0],[0.5,0,0],[0.75,0,0],[1,0,0],[0,1,0],[0.25,1,0],[0.5,1,0],[0.75,1,0],[1,1,0],[0,0.25,0],[0,0.5,0],[0,0.75,0],[1,0.25,0],[1,0.5,0],[1,0.75,0]];outlineConnect=0;fontColor=#232F3E;fillColor=#C925D1;strokeColor=#ffffff;dashed=0;verticalLabelPosition=bottom;verticalAlign=top;align=center;html=1;fontSize=12;fontStyle=0;aspect=fixed;shape=mxgraph.aws4.resourceIcon;resIcon=mxgraph.aws4.aurora;" vertex="1" parent="Cr8tvd9zCxj87-AZz5cW-26">
          <mxGeometry x="440" y="310" width="67.5" height="67.5" as="geometry" />
        </mxCell>
        <mxCell id="BFTg23CSuujXEkgAsUrE-6" value="&lt;b&gt;Aurora DSQL&lt;/b&gt;" style="text;strokeColor=none;align=center;fillColor=none;html=1;verticalAlign=middle;whiteSpace=wrap;rounded=0;" vertex="1" parent="Cr8tvd9zCxj87-AZz5cW-26">
          <mxGeometry x="421.5" y="377.5" width="99.5" height="30" as="geometry" />
        </mxCell>
        <mxCell id="BFTg23CSuujXEkgAsUrE-2" value="" style="sketch=0;points=[[0,0,0],[0.25,0,0],[0.5,0,0],[0.75,0,0],[1,0,0],[0,1,0],[0.25,1,0],[0.5,1,0],[0.75,1,0],[1,1,0],[0,0.25,0],[0,0.5,0],[0,0.75,0],[1,0.25,0],[1,0.5,0],[1,0.75,0]];outlineConnect=0;fontColor=#232F3E;fillColor=#C925D1;strokeColor=#ffffff;dashed=0;verticalLabelPosition=bottom;verticalAlign=top;align=center;html=1;fontSize=12;fontStyle=0;aspect=fixed;shape=mxgraph.aws4.resourceIcon;resIcon=mxgraph.aws4.aurora;" vertex="1" parent="Cr8tvd9zCxj87-AZz5cW-26">
          <mxGeometry x="440" y="90" width="67.5" height="67.5" as="geometry" />
        </mxCell>
        <mxCell id="BFTg23CSuujXEkgAsUrE-5" value="&lt;b&gt;Aurora DSQ&lt;/b&gt;L" style="text;strokeColor=none;align=center;fillColor=none;html=1;verticalAlign=middle;whiteSpace=wrap;rounded=0;" vertex="1" parent="Cr8tvd9zCxj87-AZz5cW-26">
          <mxGeometry x="424" y="157.5" width="99.5" height="30" as="geometry" />
        </mxCell>
        <mxCell id="c7LU-c8q0nOlSC5T02CA-3" value="" style="shape=image;verticalLabelPosition=bottom;labelBackgroundColor=default;verticalAlign=top;aspect=fixed;imageAspect=0;image=https://a.b.cdn.console.awsstatic.com/a/v1/IF2SIODJBEB3KTBVKU4OMXONIUW26QGCQTFUYJ3ICQA3SVVCTRPQ/icon/23141cdce797eeb2bd54bba0e4e0968a-0394201dd8bdedfed719d44ff6a4c69b.svg;" vertex="1" parent="Cr8tvd9zCxj87-AZz5cW-26">
          <mxGeometry x="330" y="90" width="70" height="70" as="geometry" />
        </mxCell>
        <mxCell id="c7LU-c8q0nOlSC5T02CA-4" value="&lt;b&gt;ElasticCache&lt;/b&gt;" style="text;strokeColor=none;align=center;fillColor=none;html=1;verticalAlign=middle;whiteSpace=wrap;rounded=0;" vertex="1" parent="Cr8tvd9zCxj87-AZz5cW-26">
          <mxGeometry x="315.25" y="157.5" width="99.5" height="30" as="geometry" />
        </mxCell>
        <mxCell id="c7LU-c8q0nOlSC5T02CA-5" value="" style="shape=image;verticalLabelPosition=bottom;labelBackgroundColor=default;verticalAlign=top;aspect=fixed;imageAspect=0;image=https://a.b.cdn.console.awsstatic.com/a/v1/IF2SIODJBEB3KTBVKU4OMXONIUW26QGCQTFUYJ3ICQA3SVVCTRPQ/icon/23141cdce797eeb2bd54bba0e4e0968a-0394201dd8bdedfed719d44ff6a4c69b.svg;" vertex="1" parent="Cr8tvd9zCxj87-AZz5cW-26">
          <mxGeometry x="330" y="310" width="70" height="70" as="geometry" />
        </mxCell>
        <mxCell id="c7LU-c8q0nOlSC5T02CA-6" value="&lt;b&gt;ElasticCache&lt;/b&gt;" style="text;strokeColor=none;align=center;fillColor=none;html=1;verticalAlign=middle;whiteSpace=wrap;rounded=0;" vertex="1" parent="Cr8tvd9zCxj87-AZz5cW-26">
          <mxGeometry x="315.25" y="377.5" width="99.5" height="30" as="geometry" />
        </mxCell>
        <mxCell id="c7LU-c8q0nOlSC5T02CA-8" value="" style="shape=image;verticalLabelPosition=bottom;labelBackgroundColor=default;verticalAlign=top;aspect=fixed;imageAspect=0;image=https://a.b.cdn.console.awsstatic.com/a/v1/IF2SIODJBEB3KTBVKU4OMXONIUW26QGCQTFUYJ3ICQA3SVVCTRPQ/icon/23141cdce797eeb2bd54bba0e4e0968a-0394201dd8bdedfed719d44ff6a4c69b.svg;" vertex="1" parent="Cr8tvd9zCxj87-AZz5cW-26">
          <mxGeometry x="330" y="517.5" width="70" height="70" as="geometry" />
        </mxCell>
        <mxCell id="BFTg23CSuujXEkgAsUrE-4" value="" style="sketch=0;points=[[0,0,0],[0.25,0,0],[0.5,0,0],[0.75,0,0],[1,0,0],[0,1,0],[0.25,1,0],[0.5,1,0],[0.75,1,0],[1,1,0],[0,0.25,0],[0,0.5,0],[0,0.75,0],[1,0.25,0],[1,0.5,0],[1,0.75,0]];outlineConnect=0;fontColor=#232F3E;fillColor=#C925D1;strokeColor=#ffffff;dashed=0;verticalLabelPosition=bottom;verticalAlign=top;align=center;html=1;fontSize=12;fontStyle=0;aspect=fixed;shape=mxgraph.aws4.resourceIcon;resIcon=mxgraph.aws4.aurora;" vertex="1" parent="Cr8tvd9zCxj87-AZz5cW-26">
          <mxGeometry x="437.5" y="520" width="67.5" height="67.5" as="geometry" />
        </mxCell>
        <mxCell id="BFTg23CSuujXEkgAsUrE-7" value="&lt;b&gt;Aurora DSQ&lt;/b&gt;L" style="text;strokeColor=none;align=center;fillColor=none;html=1;verticalAlign=middle;whiteSpace=wrap;rounded=0;" vertex="1" parent="Cr8tvd9zCxj87-AZz5cW-26">
          <mxGeometry x="421.5" y="587.5" width="99.5" height="30" as="geometry" />
        </mxCell>
        <mxCell id="c7LU-c8q0nOlSC5T02CA-9" value="&lt;b&gt;ElasticCache&lt;/b&gt;" style="text;strokeColor=none;align=center;fillColor=none;html=1;verticalAlign=middle;whiteSpace=wrap;rounded=0;" vertex="1" parent="Cr8tvd9zCxj87-AZz5cW-26">
          <mxGeometry x="315.25" y="587.5" width="99.5" height="30" as="geometry" />
        </mxCell>
        <mxCell id="Cr8tvd9zCxj87-AZz5cW-9" value="&amp;nbsp; AZ-1" style="sketch=0;outlineConnect=0;gradientColor=none;html=1;whiteSpace=wrap;fontSize=12;fontStyle=0;shape=mxgraph.aws4.group;grIcon=mxgraph.aws4.group_availability_zone;strokeColor=#545B64;fillColor=none;verticalAlign=top;align=left;spacingLeft=30;fontColor=#545B64;dashed=1;" vertex="1" parent="Cr8tvd9zCxj87-AZz5cW-26">
          <mxGeometry x="-118.75" y="60.5" width="639.75" height="180" as="geometry" />
        </mxCell>
        <mxCell id="1aAK-wmucyP8-3csXpzo-53" value="" style="sketch=0;points=[[0,0,0],[0.25,0,0],[0.5,0,0],[0.75,0,0],[1,0,0],[0,1,0],[0.25,1,0],[0.5,1,0],[0.75,1,0],[1,1,0],[0,0.25,0],[0,0.5,0],[0,0.75,0],[1,0.25,0],[1,0.5,0],[1,0.75,0]];outlineConnect=0;fontColor=#232F3E;fillColor=#ED7100;strokeColor=#ffffff;dashed=0;verticalLabelPosition=bottom;verticalAlign=top;align=center;html=1;fontSize=12;fontStyle=0;aspect=fixed;shape=mxgraph.aws4.resourceIcon;resIcon=mxgraph.aws4.lambda;" vertex="1" parent="Cr8tvd9zCxj87-AZz5cW-4">
          <mxGeometry x="770.5" y="323.25" width="50" height="50" as="geometry" />
        </mxCell>
        <mxCell id="nhQEJnRORRV5ByxXWJ2r-3" value="" style="sketch=0;outlineConnect=0;fontColor=#232F3E;gradientColor=none;fillColor=#8C4FFF;strokeColor=none;dashed=0;verticalLabelPosition=bottom;verticalAlign=top;align=center;html=1;fontSize=12;fontStyle=0;aspect=fixed;pointerEvents=1;shape=mxgraph.aws4.flow_logs;" vertex="1" parent="Cr8tvd9zCxj87-AZz5cW-4">
          <mxGeometry x="760.5" y="439" width="60" height="60" as="geometry" />
        </mxCell>
        <mxCell id="nhQEJnRORRV5ByxXWJ2r-4" value="&lt;b&gt;VPC Flow Logs&lt;/b&gt;" style="text;strokeColor=none;align=center;fillColor=none;html=1;verticalAlign=middle;whiteSpace=wrap;rounded=0;" vertex="1" parent="Cr8tvd9zCxj87-AZz5cW-4">
          <mxGeometry x="760.5" y="510" width="60" height="30" as="geometry" />
        </mxCell>
        <mxCell id="nhQEJnRORRV5ByxXWJ2r-7" value="&lt;b&gt;Lambda&lt;/b&gt;" style="text;strokeColor=none;align=center;fillColor=none;html=1;verticalAlign=middle;whiteSpace=wrap;rounded=0;" vertex="1" parent="Cr8tvd9zCxj87-AZz5cW-4">
          <mxGeometry x="764" y="373.25" width="60" height="30" as="geometry" />
        </mxCell>
        <mxCell id="hgdbOCuSvj7pBk63r5Fd-1" value="EC2" style="sketch=0;points=[[0,0,0],[0.25,0,0],[0.5,0,0],[0.75,0,0],[1,0,0],[0,1,0],[0.25,1,0],[0.5,1,0],[0.75,1,0],[1,1,0],[0,0.25,0],[0,0.5,0],[0,0.75,0],[1,0.25,0],[1,0.5,0],[1,0.75,0]];outlineConnect=0;fontColor=#232F3E;fillColor=#ED7100;strokeColor=#ffffff;dashed=0;verticalLabelPosition=bottom;verticalAlign=top;align=center;html=1;fontSize=12;fontStyle=0;aspect=fixed;shape=mxgraph.aws4.resourceIcon;resIcon=mxgraph.aws4.ec2;" vertex="1" parent="Cr8tvd9zCxj87-AZz5cW-4">
          <mxGeometry x="410.5" y="346.5" width="60" height="60" as="geometry" />
        </mxCell>
        <mxCell id="Cr8tvd9zCxj87-AZz5cW-5" value="" style="sketch=0;outlineConnect=0;fontColor=#232F3E;gradientColor=none;fillColor=#8C4FFF;strokeColor=none;dashed=0;verticalLabelPosition=bottom;verticalAlign=top;align=center;html=1;fontSize=12;fontStyle=0;aspect=fixed;pointerEvents=1;shape=mxgraph.aws4.internet_gateway;fillStyle=solid;" vertex="1" parent="Cr8tvd9zCxj87-AZz5cW-4">
          <mxGeometry x="-33" y="499" width="71" height="71" as="geometry" />
        </mxCell>
        <mxCell id="Cr8tvd9zCxj87-AZz5cW-6" value="&lt;b&gt;Internet Gateway&lt;/b&gt;" style="text;html=1;align=center;verticalAlign=middle;whiteSpace=wrap;rounded=0;fillColor=default;" vertex="1" parent="Cr8tvd9zCxj87-AZz5cW-4">
          <mxGeometry x="-27.5" y="590" width="60" as="geometry" />
        </mxCell>
        <mxCell id="QtmCiX4GxsC47BYMLJ8T-3" style="edgeStyle=orthogonalEdgeStyle;rounded=0;orthogonalLoop=1;jettySize=auto;html=1;exitX=0.25;exitY=1;exitDx=0;exitDy=0;entryX=0.5;entryY=1;entryDx=0;entryDy=0;" edge="1" parent="Cr8tvd9zCxj87-AZz5cW-4" source="Cr8tvd9zCxj87-AZz5cW-6" target="Cr8tvd9zCxj87-AZz5cW-6">
          <mxGeometry relative="1" as="geometry" />
        </mxCell>
        <mxCell id="lQ-txgPadyU6qg3tsw2Z-15" style="edgeStyle=orthogonalEdgeStyle;rounded=0;orthogonalLoop=1;jettySize=auto;html=1;exitX=0;exitY=0;exitDx=0;exitDy=0;" edge="1" parent="Cr8tvd9zCxj87-AZz5cW-4" source="Cr8tvd9zCxj87-AZz5cW-6" target="Cr8tvd9zCxj87-AZz5cW-6">
          <mxGeometry relative="1" as="geometry" />
        </mxCell>
        <mxCell id="lQ-txgPadyU6qg3tsw2Z-16" style="edgeStyle=orthogonalEdgeStyle;rounded=0;orthogonalLoop=1;jettySize=auto;html=1;exitX=0;exitY=0;exitDx=0;exitDy=0;" edge="1" parent="Cr8tvd9zCxj87-AZz5cW-4" source="Cr8tvd9zCxj87-AZz5cW-6" target="Cr8tvd9zCxj87-AZz5cW-6">
          <mxGeometry relative="1" as="geometry" />
        </mxCell>
        <mxCell id="3kcdH0w5OopvWk_hTWTR-2" value="&lt;b&gt;ALB&lt;/b&gt;" style="text;strokeColor=none;align=center;fillColor=none;html=1;verticalAlign=middle;whiteSpace=wrap;rounded=0;" vertex="1" parent="Cr8tvd9zCxj87-AZz5cW-4">
          <mxGeometry x="-27.5" y="110" width="60" height="30" as="geometry" />
        </mxCell>
        <mxCell id="3kcdH0w5OopvWk_hTWTR-1" value="" style="points=[];aspect=fixed;html=1;align=center;shadow=0;dashed=0;fillColor=#FF6A00;strokeColor=none;shape=mxgraph.alibaba_cloud.alb_application_load_balancer_02;" vertex="1" parent="Cr8tvd9zCxj87-AZz5cW-4">
          <mxGeometry x="-27.5" y="60" width="60" height="60" as="geometry" />
        </mxCell>
        <mxCell id="lQ-txgPadyU6qg3tsw2Z-14" value="" style="shape=image;verticalLabelPosition=bottom;labelBackgroundColor=default;verticalAlign=top;aspect=fixed;imageAspect=0;image=https://a.b.cdn.console.awsstatic.com/a/v1/HNYUD5LSRDESBT7YPQWDDWYOM2WXFQZBY44MBW4XDC4S2NIYAG4Q/icon/f5d2c00d40914bff4f82f29f9ef768bc-53a84099cf556710383a52b4612a8612.svg;" vertex="1" parent="Cr8tvd9zCxj87-AZz5cW-2">
          <mxGeometry x="-10" y="400" width="70" height="70" as="geometry" />
        </mxCell>
        <mxCell id="Cr8tvd9zCxj87-AZz5cW-27" style="rounded=0;orthogonalLoop=1;jettySize=auto;html=1;flowAnimation=1;edgeStyle=orthogonalEdgeStyle;" edge="1" parent="1">
          <mxGeometry relative="1" as="geometry">
            <mxPoint x="2980" y="769" as="sourcePoint" />
            <mxPoint x="3250" y="780" as="targetPoint" />
            <Array as="points">
              <mxPoint x="2980" y="780" />
            </Array>
          </mxGeometry>
        </mxCell>
        <mxCell id="fOQVSjPucYivhPDJFZn5-2" value="" style="dashed=0;outlineConnect=0;html=1;align=center;labelPosition=center;verticalLabelPosition=bottom;verticalAlign=top;shape=mxgraph.weblogos.github" vertex="1" parent="1">
          <mxGeometry x="3240" y="750" width="70" height="70" as="geometry" />
        </mxCell>
        <mxCell id="nhQEJnRORRV5ByxXWJ2r-5" value="" style="sketch=0;points=[[0,0,0],[0.25,0,0],[0.5,0,0],[0.75,0,0],[1,0,0],[0,1,0],[0.25,1,0],[0.5,1,0],[0.75,1,0],[1,1,0],[0,0.25,0],[0,0.5,0],[0,0.75,0],[1,0.25,0],[1,0.5,0],[1,0.75,0]];points=[[0,0,0],[0.25,0,0],[0.5,0,0],[0.75,0,0],[1,0,0],[0,1,0],[0.25,1,0],[0.5,1,0],[0.75,1,0],[1,1,0],[0,0.25,0],[0,0.5,0],[0,0.75,0],[1,0.25,0],[1,0.5,0],[1,0.75,0]];outlineConnect=0;fontColor=#232F3E;fillColor=#E7157B;strokeColor=#ffffff;dashed=0;verticalLabelPosition=bottom;verticalAlign=top;align=center;html=1;fontSize=12;fontStyle=0;aspect=fixed;shape=mxgraph.aws4.resourceIcon;resIcon=mxgraph.aws4.systems_manager;" vertex="1" parent="1">
          <mxGeometry x="3640" y="740" width="65.75" height="65.75" as="geometry" />
        </mxCell>
        <mxCell id="nhQEJnRORRV5ByxXWJ2r-6" value="&lt;b&gt;Systems Manager&lt;/b&gt;" style="text;strokeColor=none;align=center;fillColor=none;html=1;verticalAlign=middle;whiteSpace=wrap;rounded=0;" vertex="1" parent="1">
          <mxGeometry x="3620.75" y="800" width="110" height="30" as="geometry" />
        </mxCell>
        <mxCell id="GUhW-B6BBazeU2E1Dap--1" value="" style="shape=image;verticalLabelPosition=bottom;labelBackgroundColor=default;verticalAlign=top;aspect=fixed;imageAspect=0;image=data:image/webp,UklGRj4eAABXRUJQVlA4WAoAAAAYAAAAxgEA/wEAQUxQSAITAAABBg/Y/y9yWv/fyO5mJe5Og5UETRrcEvwULV7HamgdqUHQUiqngtSCc3B32hQnwd0twSGysdWZ+RhTSHZn5vUxnkTEBPQxsgwJuzc3sLAUJME6PdFCQhDOj0owUhBg/7NvvI6CgIJ5HcI5CgIuTmnhT0JwHviwrg8FAaVr3ojnKQi4ndkzkKUg4NR36RwJwbF/YjUSAko2jAgiIYg3l3U3UhDgPDunCQlBLD2aEU9BgFC4Z7AfBQHu/DXpBgoCnHdm1SAhwH3j3RCWggCc7B7AkRCwsnEADaHkm5pmEgJuDK5uICG4d70Qz1MQUPxbxwgSgnB1WnM/CgIcOR80MFAQYN0wKIGnICAvs3coCcF1+vtWJgoCbHsznuUpCCjY/k4oS0FA7ppeLAnBdWl+HRICbMenhpEQRGv2ADMFAcKDTW1JCHDfnVONhAAhd3QYR0EAcvoE8yQE28rW/hwFAQXTki0sBQEXhj5rICFgW98EGkLZ/A4hJATcntDKTEJwH36vvp6CgNK1Q6qREIRb83uHUBDgPPtduomCgNLsz2vrKAi4v21YJAnBnbemq4WCAOfFzPo8BQFl58eHsxQEWI8PpiGI1p2pJAQIhZmRJATg7sehPAnBdeTFAJ6CgPJVrQM5CgLufJ3sx1IQcHxUkomEYN/2ShUdBQHW37qFshQEXJva2kxCwIHRyTQE28Y3Y0gIuP97Pz8Sgvv8d2kGCgLK902oS0IQ83cMi6QgwH1j5QsWCgLsV+ak6igIKD09IZaEIBYfecWXggCheEcjnoIAwT47hqMgANYxfjwJQTzXNZinIMC+rmkQR0HAg+nJ/iQE9+n3E0gIsH1JRJj5v1z5cUQ0oe9TzcTYRtGcPTM7TSNp8NUBZSM5c6ZU10CqfLCjVFI4gHX7u0EaR8Ara28LkvKBcHt1d6OG4dNq/lWnpFD/DuC49FtjzeLZr0+XS4r170EsO5MRq0lEjMguFiUFBYglOQN8NQdT5+1FbknJPhJAKFvfUq8p8A3+VeKWlO0jAkTrzzV4zYCLmlEoSEr3kQG4936MThPgQwfdlhTw4wBO9AjnVR8XlHZIUsSPB1jeIljlBab8KkpqACXT6/mqOEvS+DuipA4gXh5a20elGWoOPuaSFPPjAxxZL1blVdjTuF7rSyUFXRGAgsxuUaorrNPMW5KirhhwX5qR5q+qLE0nnXJJKgSwZ49NNqgmfeL7WTZJaVcYoGjT2wm8KuKiBqzKl5R3BQJyF/UPUkGW7r9flpR4hYLr7JyWPiqHf+77405J9QC2nC+rcWomImNPuaTQKxpQuHt4gGoxv7YjX1LsFQ+4taW7Sumw4pooqSm4ry6qrUJqzrrgkJR8pQDs56aGqoygMcfLREl9QSw78ppJRRh77i4RJIVfWQCheGuaakhdXiRIir/yACj+tZaOVX5PE74qECUVWKmA3NFxBoWni3rrkqQOKxmwr3+UTsFx4Z13SGqx0sG2vG0wp9DYgKZzyyTNAMif1sSXVWLG5HH3JBXpCYDzI+rqFZcu6fVTkqr0DMC2l6sqrGq9NwuSFoHSud1CFVR4p7kPREmbgJg7ta1ZIfm1mnrBLalOzwE4D41J1isgXf0xe8slFepJAOvGodUUzzNvriuQVKlngXBzSb9gRfO054Jct6SBAM5zs9KMisXU4vtTDkmtehyg9HBGIq9IuKoZB4sl9eqBgAc7R4QpEP/hfzyQ1KxHgnBrS2ejwuA7rb/lljQXwJW7OJFTEjUzrzslleupAHteRoBi8P38qk1SvZ4LKD/3qkJ47XCppII9GcTy3ams12ObbCoRJY0HQNm8agbWm+lrzSyQVLKnA258HOfjtQwx71+RVLPngyvnlQi9V9KH99/jkDQkoHR5hzDe6zwNabewWFLTXgG4NaNJAOtVWN+mU69L6tpLAEc/aGD0Ivp6w45KattrwL5tUALvJdhnXtpqkzQroCizTwjrDYK7/VYgqXBvAlyf0dbH4xnSpl2WVLl3AbI/SfFwKR/uc0taGMo2j4j1YPFvbCwSJW0M4t2FL/l7qIh+8/Pckmr3PoDrwqw0gwcyt5lzzi6peG8ElB2cUsfT6OtNyimRVL13gliwa3i4R4ke9dcDQdLgAPftDd3MHsO/5+o7Lkntey3AcfPXZJ1H0Kf8dtMuqX8vBtiuZERUPjYm41K5pAV6NYi2s/2MlYwfdNomSpofILr2pOgqD8u33uESJY3Q2/3nr+MNlYP1SZzjkLRDJYD774QbKoExYex1QaIFuPb1itBVMEPk69kOSVNUBkDJovQQrgLx4V2XFUkao1IAbkxq4l9RuOAWX+dJmqNygOvIyNqmCmFJGXPEKXn781oGULxhQILusRlqDN5WKnn/F5fd1TKAW5ndwrjHwkX2WXxbUoJs9HubSrUM4OSMNPOjY/06fHteUoYM9PXHZzu1DDj3jK2re0RswwnZDkkxAL7tvzmvZQAFG4dFso8iYeiOYkkx/idwkT3n39cygLzl3U1/K7DvypuSgvwvAF21QdvKtQzg5C+N5Rnbzj4rSAoEMNX9+KRby4D9wITqMupNO1QqSsoECGwy446WATE/a9BDumwtECSFKQtcWNqacg0DcK97yMd3JcUpD9BF9jwpaBj48yGf3Fc6gCF8dD4JAYb432gI4FN2O0QKAkz9z5SLFARETrxUTkLQJf+a56AgwNx9/W03BQERw3cWiBQE1JmcU0ZCMKT/dMFFQYD/SwvuihQExA7fVE5CQMrTbBqCse1X10kIbEjv360UBOgSBm5zUBBgrP/+MRICG9B4xm0KArjQdivKKAjQh71y0EVBgCHm45skBOgT5peREIDndpeJJAS8dq6MhhCUcd1GQuCSFl1zURBg7Lz5lkBBQPjIvx6QEPikjEOlFAQY02eedVIQENx38U2BgoBqQzcUkxD0yaMPOSkIMLedkidSEBDaZW4ZCQFVX95GQzDUGXGBhMD6Np5WQEEAF9x2hY2CAF1kv/0kBOhjR+eREMA/+0uRSEEA0rdaBRKC6fXDpSIFAaFTz9pJCKi96KqbhIAeW27SEAKH7yokIXDVp2XbKAjwaTn7rIuCgOD+C/NICHzCW5uKKAgwJI/JdlAQ4N96xmWBgoCorpmFJAQ+oV+Wg4IAQ9I7V0QKAnzrzCglISC4+QoaAh/W/SQJAbqo9++TEMBVn1MkUBCgb7W+RKAgwHdgdrFIQUBcxukykYKAxr9ddJIQjD1W3RIoCAh6d5uVhIBqU3KcJASkzzxDQ/Dru+AOCYGLG7aulIIAQ71xB/5JQYB/eksaAscTkdz/pWqZQzu5OEjRBHa5oJGUZsT5KBrw5nHFWsiC+kZG8bJRs8oFTUN0HHreh1HEusY7rIJmIdouvhfCKGbfVw5bRW3Cfm1mIqOo4zJOlWoQrtvL2xkYha1vOPuyXWMQ8ncM8WcUuOWF1bfcGoJYmv1FFUYxpwSyMoD4UX8WilqB++yPTRkFvWp8Qx85QOqkg3Zt4Oa/+hoZJX1W2j6qpiwYOs684FZ/JZuHRjHK+qyE0sUvR8kBQvsvyFd5jpxP6zFK+6wECNdmd/GVA1R980+7mjs/vb2BUWSA49iXDQ1ygCajj6m223N7h7CMUgOKs8ZUkwVL+2+uq7LS7UOq6hgl/jAId9a+HiYHXGSPRVbV5TwyNtXCKHMZgOPqgnYmGYA+YcAuh7rK+6ZVMMcoP6D84leJOhmAufaH51VU0bJuETpGsf8NwHrivRA5YP2b/HBXJTmyB0T7MAr+b0Es2tnDKAPgAztsLFdDD8ZVMzGK/u8B7uIVSawMQOc/+JRb7TgX1zayjNoABPvEYFYGwAdPuC+qGeFQup5llP6jAXBvgC8vA0CN+QWCWrHfGMwxKvCRwbXrH4G8HCB9V7GoRuz3JkezjJoBijMb+XNywL53rFh1OO/8q6GOUYePA8j9pJ5FDtioGRfKVIXwYFtfP0YtPh64coZUN8oA9E3nXnaqB+vBT+MZ9fiYAOuqvrE6GYB/n7W33OrAdua7VD2jnoAbMzuEcDKAuPd3FKgA97X53cyMqqwAwNEJTU1yoGsw+WCZwhMfrBsSwajMCgHHHyMTdTIAv/Y/nHcpOVvW6NqM6qwYQP6KgeGsDCCy75I7glITzn3V3MCoNeDa3E5GOUCtN7eUK7P8X3oEM2q04gCHv31OFvSp44+5lZdt66vxjDqtSCjPGp0gBwhp/f1dpXV4eArLqD8IdzcOCJQDxPRYUa6krk5pYWFUa8UCXNcXt/GRA32NgXsUk3VuxzCO0QoA29nvk+QA5rqfX1BEjr9er6Jn1GzFg1hy6IMoOeACGv9SoHzOfVTLxDLaAiBYs14wywD40C6b7crm7syGFo5RuZUCcJcuaKCTATyNHHJSwZRv7WDiGNVbSQDBOjWGlwFwVSddF5SJ49jrfiyjgisNgMtvhvMyADRcdM+tPJy5n4Yz6rgyAbs6BHFyYOq5PV9QFsKdpfUZtVy5gFmpAXKA0JFHraKCuJ/dmVHPlQ33xyZa5ABJ08/alYL1xIhARjuB6+AbNQxygPQlV11KoPzUNzU5RksBSlf3juXlwO+1Dbe8nvtiZhsjo649AXDrh3+EyAEX/+HuAu92Z/2rQYza9gxwnxrfxFcGYGg0+YjNexXv+qgmz2gzQEnW+0l6GYB/l9kXXN7JeXxaMx9GhXsM4N7q16I5GeBiX1ly2wsJ13/uEsiocg8CXMzsYpEBGGqN3GH1NkXLXo1nVLpHgevojIY6GYBfw8+OO7yJc9/bSTpGCwKK930aIwcIbfd9nuAtxNwJjY2Mevc0wL2/XjTLAR/bfWmZdyib1yqUUfOeB7i6prUcwJAwZK/bC2R1jWfUvSeC89z3teQAlmrjbnm6M0Nr6BntCWLp8Q9D5AB+z/3q0R5Mq2NmGS0KEEp2dzPKARfYaa/Hsq1u6ssx6t9TAYJ1eQM5AB829KpnOvSCP8dogZ4LwN2vqutkAIienu/2MKLrwtgYRiP0aMCZt6P1cqBvuNjq8iTOm7/UYzRDDwds7hLOywB8+2YVuT2F++66542MZobyn5sGsjKAmI8PloieQCjc/0YwoyV6PiD382SzHKDuT2fslc9xbEJNRlv0BsChN6vr5MDYbsl1dyW7sKQFozV6B2BJnxg5QODgjffFSnR7c28zo9Eh//v2IXKAqmOynJXFmvVRFKNBeg24Tmc0M8kBUr8/UimcOZOSdYyWB5TtfC9RJweWzr9fq3jnZnU0M9qkNwHurxgULQds1MCV+RUrf3m/SI4hALiv/NIlUAagTxr5l7Pi2LJGJuoZzdLLAOXHv27kIwMwN5twooK4T49vZGE0TK8DFB34+BleBriQ9rNvVYQ7P7YLZTRNLwTc/uM1PxmALrbP2uLHVba+awzPkAPcucvS9TIAY9U3jrkfh/vka9X0jNbpnQD7tZlV5ACWOp/dfnT3P69uYrRPbwWU5b7jKwesX+rC8ke0oo4fo4V6L6Dk6PNyAM6vU7bwCA51DmAZ4oBYvDKZlQFwPoMLRXnizRFBHKORejUA+V8/o2cfBiBsSonrYaPP/BTNaKfeDjj3ZoxeDvjklasfkpaoYwgFzj+6hepkAJZaD9FYFQCQ/2taECdDq1UEwKXxKb4sBQG7hybqSQi2FX3jOAoCbs/qHEBCwJnJjQwkBHHbx7VICLAuHxBNQnBfnURDwJ9P/PfEf0/898R/T/z3xH9P/PfEf09Is91FRHW+yKchBDX/lYbAhXXdS0KAPnb4VRICq6/6bRkFATA0XOYQKAiw9NlbJlAQED3mRLlIQUCd2ZftJARj+5U3XRQEBL65/YFIQUC1z/faSQhoNOs4DcHUbXEuCYGNfGtdAQUBujof7XJSEGBuNe0ECYEL7fzrLQoCdFVeWVdMQYCp1rAjLgoC/FIn3CAhcEEtFpZQEMCHdt/noiBAH/zWAxICdNEzRBICuLrrbQIFAabeB0pECgJCR58vJSHo6vzzmo2CAFOnZXlOCgLCh2y+L1IQUOOLPSUkBEOT7045KQjweyEzV6AgIGbginISAhJH/0VD8Gk29RwJgQ3u8vNdCgL4+H5r7RQE+CQNO0BCYH1TJl2jIIALSltQSEGALrjHXhcFAbrIoddJCODjvi8UKQhAynqrSEJA99NWGkLgh5dLSQjcs7Mv2ykIMHZclitQEBA8ZPsdEgJfY+x+KwUBxubfnLBTEBDc/ddcgYKAuCErCkkI+trv77FTEGBunnFBoCAgpN2PZSQExPbfSkPQJ71znoTAWlIn51MQwAWmLbNREKAL772PhABd1Ed5JARw1WblCxQEoPWmQoGEYHo1p0SkICB08ikbCQFJ8y+5SQjotjGPhhAw9GkhCYGrNnmfjYIAnxY/nXZREBDUZ14uCYF/ZsiGIgoCDA0+2m+nIMCv5ZeX3BQERD7/WwEJgX+m958OCgIMz755WaQgwJI4vZSEgMDGy2gIXHCXEyQE8OGNFQxWUDggVAoAADBiAJ0BKscBAAI+dTqZSaSjoiEjNHjQkA6JZW7hc90AxgLwB+gDwB/YP4B+AH6AX/Q3s0ifvn5d7E323+o/r3+VnUS799++boPH69fBXm31K+oX+FeoF/Cv4N/Zf4/+T/cA8wX88/q/7ne+L6gf/J6gH+M9Gj1BP7T6gH6zel5+6fwNft9+zPwBfzL/K//X+h//T4AP/t6gHoAeuf08/gH4AfgB+6ff4EeDEgaoKLwL3Be4L3Be4Lxpq2bLbE4L3Be4L3Be4L3Be0+16R7hKf2y/IhxZ359wXuC9wXuC8OxkL/n5soA0p9wXuC9wXuC9wXuC9oSyo669a5vcF7gvcF7gvcF7gvGml/ZoHXCoHdZdyHFnfn2h45YVsuK8CrkWzqsmJv09ztZyHFnfnxJ/mvkx4sHxXgXt/IpleziDsxhloT6rLuQ4bzuT2d+fcF40hFLcP6wyFLxJUI/OX59wXt/IpO+xIwFRpwhbSBTCcmLoJvtaZ2qCixSEUXf5JHrxcXEbJa2WxjBvgvb9EpXZGLPtPnhXgXjP6ZuLO/PvDW0cxPWLzxlM3Dys+4s7julCKLwL3BWJdEHZjM3udmblAkIovAq5NWfcWd+fcFYlmZOENvmEFCKLwKuTVn3Fnfn3Be0jIAmup6gosT+mbizvz7gvcF4YMkYqXcggT4f3BeDMyX0EOLO+sq89Y00Kl2QzyEUV7D5moy5QVhe4Lw2xDTWcoo+KoSCT+86hfO/PuC8Ns4iXAYz3Ql0nneMpNfQ/d+fcF7fpbiQLwx0wVNHmUmi+mBPFe4s78+4Lw2ziK5BBfpxNrAQNdEOLO/PuC9pBLxpe4eSziz7gvcF7gvb9LcSBe38fnQMiiHFnfn3BUf8z7izaf6dXIcWd+fcF7SCXjS9w8lnFn3Be4L3Be36W4kC9v4/OgZFEOLO/PuCpPCeUYUQ1qpG1MiiHFnfn3BeE9eLi/NdHax6y1uUbhReBe4L3Be4Lx1udamfCvgGeQlnFn3Be4L3Be4L3BWJa0XMIH9OrkOLO/PuC9wXuC8OxkicTq01ZrFnfnwAAP7r/vxOjFnbty2MlHMFTDvfkHibNx0+4mrnb3D75eqhIj2jBYBatoXbCjXehTLiYWLm44cAAErb5iwE2GxfHk7lpQfYjuTtcVta0vV/9BZENoiCL8lUZ4VauSMeno/IAAaoZ49YNaO1EfgMeffSq6oMxlVrXC4xdIdjy4c6X3cqOOD/eFkXBjAAF/Sax/VxlUwirdl9WEJO5aUUb40dP6qmsI1zQX5LVO21WghofmrDlQQCQARZUVNUA/a5aFufrpH1nQ/S9f4CZjVW/6PuD5hW3wyWU0BgAAgsQP5f72+auCzfcj8u+VQHxr/2//8ivy82PQkgGoHG1zpta4tl0iIwy9xgoarJz9JFNuxhlP7lJtW5jh9eg0gbY+d2mAScEXUAouHg2Ph2SoM86LtBK6r+e4RU/Mc1df79VCJoj+8aFscbSL2UD5hQdsngHQClGVXhU+SAAAyYNkTCo4VzO2MrbzDb++e6vk3q3KtL9Ob2nE7VUJpbQbn0tcpfZZh2W30X9kPvLG3ZH529q8+liZpu4yPLu3HpxjTzib/pa6mHFS+EddZ8zN2Ei8229Ju83Tn6SKbeA0m6QRn8oZT+RgIEV+Q3xZMR3vOANTBpBoYYHho1mCpIaiqYioOnplnV3E+0iU9XLQtz9dK0UnePU46vvTMkt1e/PmDD5KauruUaI1O8ouAzPppBflOzgnMxjdaG7xqQKp/+KPP24qfEZcNYYS0C/wm2VyN7pKcd3iIFjt69AjoREJQtDMjcgrphRE5PwQ3NMkxzo6TpJtKL4tcWfTF4DOQ/8kY9PRxJ8PeZPFMtOqgKlar7Qv/+vf/+qDT//beLsueBvtA1PQa0r8baybPGCiQ0dv3t6CIoaqiWIVTc6QGJEwHdj+xoA4VS3ijZKq8h1UbTBlES5qWm6+ZTP7ZHnUlH6f/v4T5krkqU1nzMP0YYBSiGjQ1vHEhEp2vld3TLuYbb6cQSMml8mx0wdqEHcP844j6QVq6hwanee9jQrMBszYk8bSCqcXs+ZtZ+1cNeJofiGVOf+P+o+iqL4YB8H+IVttKXN8BwgR7YSobwfTVWO/O1CUTeAiGzzzqsFhaAK4h0SBdaHU/O461ClvRmQrP8Sx6fZHx2K/jcm7iPBgFrmJo0txgtNNvIR4ZGqmUzdgDo8+jGFrogXn6VTa825dJAqHGwxjcWXXxPITbI4F33djS6VtGkTRQLgj8hrih7hS6JylAuwp5jhv3rT+NcfVTR4u2DUCRYdhOI2vsUQSiTtPn0YwtdtU7f6s/60zy4nRR+aumm/DsmC5oxw0ybA8+gYP//sqyQSu6/Lgg/4XqDdjAMzqHbvkmm2+nA2kYj0fIgklOR/Ho2JwE8NH4jEb6aLbBbyqS9zdY3HRG5eiY+L4Zzor9x2hvMyStr+GHAgRcKk0Uwrhm7uoardTdab2dUlD+kqi8LE1QeAXoNKVXHSWahJHjsV/zdWyUn5qFNqa6oJ59xNfX4dJW+sk0Dpz7+4U8T7zW5WdGEBLDiz6ZMuhEav+jS1H+rjZRxrhJcONoNgeQFQkraeVDV3Wqo5OQbjR6b1MO51VV8e+I+w20XG7XZetC3pFsw5oeeWpVFQNFi9sATr+asOZVAiDNk9dVoW+fh/FMydYLmYpWpW/z9cM0jlr7Cky6BtZX54BsbsZRho/EYlsWOAxXjaE3lTT+Hp+QakIgcRg+YC/QkHHUdgN6ySoeVbNfc3czZfp2Idr1fxFICVTs+4WQuMETw05KfoWdTJQBrZeuuW12Hw4/UJb0LFHXxzkHVI5zs0g729v2mUaBKDyO6w3X4NUXlGTjgqqwrIBmvgA1naPknXMVwy43vFc6nwBheLeTG8AUpgpH0PFP2YRcRcBxwJvnGZMblRAlHclINf64Mzfgo7FmNH++pX+tsPoa60hACxbdT2tL+72BH/WyjALp+nGGNQGe498K+tvX+ofhPkmu6Ot/mceFb9Bin8II2FOsVNP15AqJeRcgG0HHL9whgaPGCBRWMMSYAca5eKDzzaik/nchcL7spF8/Rs8y+/UvTj50tZ8jt0gAPUVIcI6M9oRSqSYoWU//xM/Wyal+GKaP8Aov8jGNDRFRM56BTxlUmwLnRKUS+cBj53Lmh8rnJLLnYe6Fg4H+QlEleZ0GmDft9fRBwIGQlYdcwIjOlYeCBRD+dnDEotGkjaAFocqbMAr0naosgAL3exE8g6ycDTdw+mccvrS7qCXYWl8K98mkDeUoAlRLg/AG6CCsjWBcUZ61AVwT2udO/QT3I0CivWpST4UyTMXRtfZsgVe6euYAMm0A1MOnNeL3wIeu2HM31eJAB6qitcksxWMVlrhfUYQUQgOc+1FUE+K0jgA5QVcE+1iAIY+J45+nqB9vqdrjU8jNqYP71+Kk/xZ8qfryWNdfHCgASdPkrQ5Egnj+CH0VzeRFH6Q8LuXzFXBnV4FMXU5yqImXQAABFWElGugAAAEV4aWYAAElJKgAIAAAABgASAQMAAQAAAAEAAAAaAQUAAQAAAFYAAAAbAQUAAQAAAF4AAAAoAQMAAQAAAAIAAAATAgMAAQAAAAEAAABphwQAAQAAAGYAAAAAAAAASAAAAAEAAABIAAAAAQAAAAYAAJAHAAQAAAAwMjEwAZEHAAQAAAABAgMAAKAHAAQAAAAwMTAwAaADAAEAAAD//wAAAqAEAAEAAADHAQAAA6AEAAEAAAAAAgAAAAAAAA==;" vertex="1" parent="1">
          <mxGeometry x="3420" y="750" width="62.2" height="70" as="geometry" />
        </mxCell>
        <mxCell id="c7LU-c8q0nOlSC5T02CA-23" value="&lt;b&gt;CloudFront&lt;/b&gt;" style="text;strokeColor=none;align=center;fillColor=none;html=1;verticalAlign=middle;whiteSpace=wrap;rounded=0;" vertex="1" parent="1">
          <mxGeometry x="3181.75" y="160" width="60" height="30" as="geometry" />
        </mxCell>
        <mxCell id="QtmCiX4GxsC47BYMLJ8T-12" value="&lt;font style=&quot;font-size: 14px;&quot;&gt;&lt;b&gt;www.exemplo.com&lt;/b&gt;&lt;/font&gt;" style="text;strokeColor=none;align=center;fillColor=none;html=1;verticalAlign=middle;whiteSpace=wrap;rounded=0;" vertex="1" parent="1">
          <mxGeometry x="3120" y="340" width="120" height="30" as="geometry" />
        </mxCell>
        <mxCell id="KJ7Cj-WDXRMeOdCC8TKl-1" value="&lt;b&gt;&lt;font style=&quot;color: rgb(51, 0, 26);&quot;&gt;Usuários&lt;/font&gt;&lt;/b&gt;" style="sketch=0;pointerEvents=1;shadow=0;dashed=0;html=1;strokeColor=#2D7600;labelPosition=center;verticalLabelPosition=bottom;verticalAlign=top;outlineConnect=0;align=center;shape=mxgraph.office.users.users;fillColor=#60a917;fontColor=#ffffff;" vertex="1" parent="1">
          <mxGeometry x="2910" y="320" width="70" height="70" as="geometry" />
        </mxCell>
        <mxCell id="KJ7Cj-WDXRMeOdCC8TKl-4" value="&lt;b style=&quot;text-wrap: nowrap;&quot;&gt;Desenvolvedores&lt;/b&gt;" style="text;strokeColor=none;align=center;fillColor=none;html=1;verticalAlign=middle;whiteSpace=wrap;rounded=0;" vertex="1" parent="1">
          <mxGeometry x="2915" y="807.88" width="60" height="30" as="geometry" />
        </mxCell>
        <mxCell id="lQ-txgPadyU6qg3tsw2Z-9" value="&lt;b&gt;&lt;font&gt;Desenvolvedores&lt;/font&gt;&lt;/b&gt;" style="sketch=0;pointerEvents=1;shadow=0;dashed=0;html=1;strokeColor=#006EAF;labelPosition=center;verticalLabelPosition=bottom;verticalAlign=top;outlineConnect=0;align=center;shape=mxgraph.office.users.users;fillColor=#1ba1e2;fontColor=#ffffff;" vertex="1" parent="1">
          <mxGeometry x="2910" y="722.12" width="70" height="77.88" as="geometry" />
        </mxCell>
        <mxCell id="c7LU-c8q0nOlSC5T02CA-18" value="" style="sketch=0;points=[[0,0,0],[0.25,0,0],[0.5,0,0],[0.75,0,0],[1,0,0],[0,1,0],[0.25,1,0],[0.5,1,0],[0.75,1,0],[1,1,0],[0,0.25,0],[0,0.5,0],[0,0.75,0],[1,0.25,0],[1,0.5,0],[1,0.75,0]];outlineConnect=0;fontColor=#232F3E;fillColor=#8C4FFF;strokeColor=#ffffff;dashed=0;verticalLabelPosition=bottom;verticalAlign=top;align=center;html=1;fontSize=12;fontStyle=0;aspect=fixed;shape=mxgraph.aws4.resourceIcon;resIcon=mxgraph.aws4.cloudfront;" vertex="1" parent="1">
          <mxGeometry x="3181.75" y="101.75" width="58.25" height="58.25" as="geometry" />
        </mxCell>
        <mxCell id="QtmCiX4GxsC47BYMLJ8T-11" style="edgeStyle=orthogonalEdgeStyle;rounded=0;orthogonalLoop=1;jettySize=auto;html=1;flowAnimation=1;" edge="1" parent="1" target="c7LU-c8q0nOlSC5T02CA-18">
          <mxGeometry relative="1" as="geometry">
            <mxPoint x="3285" y="336" as="sourcePoint" />
            <mxPoint x="3230" y="240" as="targetPoint" />
            <Array as="points">
              <mxPoint x="3285" y="140" />
            </Array>
          </mxGeometry>
        </mxCell>
      </root>
    </mxGraphModel>
  </diagram>
</mxfile>
